%
M48
M72
T01C0.0200
T02C0.0320
T03C0.0350
T04C0.0360
T05C0.0400
%
T01
X2262Y206
X2152Y476
X2272Y656
X2302Y866
X2152Y956
X2042Y1046
X1952Y956
X2182Y1216
X2042Y1296
X1992Y1346
X1892Y1346
X2042Y1416
X2042Y1476
X1992Y1496
X1942Y1526
X1952Y1586
X1952Y1666
X1872Y1606
X1682Y1516
X1642Y1556
X1572Y1546
X1572Y1606
X1642Y1636
X1532Y1486
X1702Y1816
X1612Y1916
X1482Y1966
X1662Y2126
X1662Y2266
X1452Y2146
X1232Y2296
X1432Y2436
X1342Y2546
X1022Y2396
X632Y2546
X502Y2446
X302Y2326
X232Y2366
X302Y2406
X212Y2516
X2342Y2546
X2252Y2176
X2002Y1956
X1882Y1826
X2272Y1756
X2342Y1716
X2762Y1796
X1522Y1026
X1492Y986
X1502Y926
X1372Y996
X1282Y1036
X1232Y1036
X1122Y1046
X1332Y836
X1292Y796
X1252Y756
X1212Y716
X822Y506
X762Y426
X302Y726
X202Y916
X632Y996
X782Y826
X1482Y1076
X622Y1636
X902Y2146
X842Y2126
X782Y2126
X792Y2046
X812Y1986
X882Y1946
X892Y1756
X542Y2086
X592Y2126
X862Y2526
X682Y2656
X1432Y2646
T02
X432Y1486
X352Y1486
X2432Y2586
X2532Y2586
T03
X2132Y246
X2032Y246
X1932Y246
X1832Y246
X1732Y246
X1632Y246
X1532Y246
X1432Y246
X1332Y246
X1232Y246
X1132Y246
X1032Y246
X932Y246
X832Y246
X932Y1146
X1032Y1146
X1132Y1146
X1232Y1146
X1332Y1146
X1432Y1146
X1532Y1146
X1632Y1146
X1732Y1146
X1832Y1146
X1932Y1146
X2032Y1146
T04
X1872Y2256
X1972Y2256
X2072Y2256
X2112Y2526
X2012Y2526
X1912Y2526
X1812Y2526
X1712Y2526
X1612Y2526
X1512Y2526
X1512Y2626
X1612Y2626
X1712Y2626
X1812Y2626
X1912Y2626
X2012Y2626
X2112Y2626
X2722Y2596
X2722Y2496
X2722Y2396
T05
X2712Y1046
X2612Y1046
X2512Y1046
X2412Y1046
X2412Y1146
X2512Y1146
X2612Y1146
X2712Y1146
X2712Y1346
X2612Y1346
X2512Y1346
X2412Y1346
X2412Y1446
X2512Y1446
X2612Y1446
X2712Y1446
X2712Y1646
X2612Y1646
X2512Y1646
X2412Y1646
X2412Y1746
X2512Y1746
X2612Y1746
X2712Y1746
X2712Y1946
X2612Y1946
X2512Y1946
X2412Y1946
X2412Y2046
X2512Y2046
X2612Y2046
X2712Y2046
X1092Y2116
X1192Y2116
X1292Y2116
X1292Y2216
X1192Y2216
X1092Y2216
X992Y2216
X992Y2116
X792Y1576
X792Y1476
X792Y1376
X792Y1276
X992Y1476
X1092Y1476
X1192Y1476
X1292Y1476
X1292Y1576
X1192Y1576
X1092Y1576
X992Y1576
M30
