G75*
G70*
%OFA0B0*%
%FSLAX24Y24*%
%IPPOS*%
%LPD*%
%AMOC8*
5,1,8,0,0,1.08239X$1,22.5*
%
%ADD10R,0.0632X0.0632*%
%ADD11R,0.0947X0.0790*%
%ADD12R,0.0751X0.0672*%
%ADD13R,0.0947X0.0632*%
%ADD14OC8,0.0760*%
%ADD15O,0.1360X0.0760*%
%ADD16R,0.0278X0.0691*%
%ADD17R,0.0691X0.0278*%
%ADD18C,0.0710*%
%ADD19O,0.0680X0.1200*%
%ADD20R,0.0672X0.0751*%
%ADD21R,0.1144X0.0554*%
%ADD22R,0.2559X0.1181*%
%ADD23O,0.1280X0.0720*%
%ADD24O,0.0720X0.1280*%
%ADD25OC8,0.0720*%
%ADD26R,0.0632X0.0317*%
%ADD27R,0.5200X0.5200*%
%ADD28R,0.0554X0.0711*%
%ADD29C,0.0520*%
%ADD30C,0.0640*%
D10*
X026016Y023273D03*
X026016Y022446D03*
X022816Y022446D03*
X022816Y023273D03*
X004329Y015460D03*
X003502Y015460D03*
D11*
X003997Y008160D03*
X001634Y008160D03*
X025434Y008160D03*
X027797Y008160D03*
D12*
X014116Y019325D03*
X014116Y019994D03*
X013916Y022625D03*
X014916Y022625D03*
X015816Y022625D03*
X015816Y023294D03*
X014916Y023294D03*
X013916Y023294D03*
X012516Y024125D03*
X012516Y024794D03*
X012516Y025825D03*
X012516Y026494D03*
X023616Y023194D03*
X023616Y022525D03*
X025216Y022525D03*
X025216Y023194D03*
D13*
X016367Y021860D03*
X015264Y021860D03*
X010067Y019960D03*
X008964Y019960D03*
X007367Y019760D03*
X006264Y019760D03*
D14*
X009916Y021160D03*
X010916Y021160D03*
X011916Y021160D03*
X012916Y021160D03*
X012916Y022160D03*
X011916Y022160D03*
X010916Y022160D03*
X009916Y022160D03*
X009916Y015760D03*
X010916Y015760D03*
X011916Y015760D03*
X012916Y015760D03*
X012916Y014760D03*
X011916Y014760D03*
X010916Y014760D03*
X009916Y014760D03*
X024116Y014460D03*
X025116Y014460D03*
X026116Y014460D03*
X027116Y014460D03*
X027116Y013460D03*
X026116Y013460D03*
X025116Y013460D03*
X024116Y013460D03*
X024116Y011460D03*
X025116Y011460D03*
X026116Y011460D03*
X027116Y011460D03*
X027116Y010460D03*
X026116Y010460D03*
X025116Y010460D03*
X024116Y010460D03*
X024116Y016460D03*
X025116Y016460D03*
X026116Y016460D03*
X027116Y016460D03*
X027116Y017460D03*
X026116Y017460D03*
X025116Y017460D03*
X024116Y017460D03*
X024116Y019460D03*
X025116Y019460D03*
X026116Y019460D03*
X027116Y019460D03*
X027116Y020460D03*
X026116Y020460D03*
X025116Y020460D03*
X024116Y020460D03*
D15*
X007916Y015760D03*
X007916Y014760D03*
X007916Y013760D03*
X007916Y012760D03*
D16*
X015812Y014517D03*
X016009Y014517D03*
X016206Y014517D03*
X016403Y014517D03*
X016599Y014517D03*
X016796Y014517D03*
X016993Y014517D03*
X017190Y014517D03*
X017387Y014517D03*
X017584Y014517D03*
X017781Y014517D03*
X017977Y014517D03*
X018174Y014517D03*
X018371Y014517D03*
X018568Y014517D03*
X018765Y014517D03*
X018962Y014517D03*
X019159Y014517D03*
X019355Y014517D03*
X019552Y014517D03*
X019552Y019891D03*
X019355Y019891D03*
X019159Y019891D03*
X018962Y019891D03*
X018765Y019891D03*
X018568Y019891D03*
X018371Y019891D03*
X018174Y019891D03*
X017977Y019891D03*
X017781Y019891D03*
X017584Y019891D03*
X017387Y019891D03*
X017190Y019891D03*
X016993Y019891D03*
X016796Y019891D03*
X016599Y019891D03*
X016403Y019891D03*
X016206Y019891D03*
X016009Y019891D03*
X015812Y019891D03*
D17*
X014995Y019074D03*
X014995Y018878D03*
X014995Y018681D03*
X014995Y018484D03*
X014995Y018287D03*
X014995Y018090D03*
X014995Y017893D03*
X014995Y017696D03*
X014995Y017500D03*
X014995Y017303D03*
X014995Y017106D03*
X014995Y016909D03*
X014995Y016712D03*
X014995Y016515D03*
X014995Y016319D03*
X014995Y016122D03*
X014995Y015925D03*
X014995Y015728D03*
X014995Y015531D03*
X014995Y015334D03*
X020369Y015334D03*
X020369Y015531D03*
X020369Y015728D03*
X020369Y015925D03*
X020369Y016122D03*
X020369Y016319D03*
X020369Y016515D03*
X020369Y016712D03*
X020369Y016909D03*
X020369Y017106D03*
X020369Y017303D03*
X020369Y017500D03*
X020369Y017696D03*
X020369Y017893D03*
X020369Y018090D03*
X020369Y018287D03*
X020369Y018484D03*
X020369Y018681D03*
X020369Y018878D03*
X020369Y019074D03*
D18*
X020316Y011460D03*
X019316Y011460D03*
X018316Y011460D03*
X017316Y011460D03*
X016316Y011460D03*
X015316Y011460D03*
X014316Y011460D03*
X013316Y011460D03*
X012316Y011460D03*
X011316Y011460D03*
X010316Y011460D03*
X009316Y011460D03*
X009316Y002460D03*
X010316Y002460D03*
X011316Y002460D03*
X012316Y002460D03*
X013316Y002460D03*
X014316Y002460D03*
X015316Y002460D03*
X016316Y002460D03*
X017316Y002460D03*
X018316Y002460D03*
X019316Y002460D03*
X020316Y002460D03*
X021316Y002460D03*
X008316Y002460D03*
D19*
X024316Y025860D03*
X025316Y025860D03*
D20*
X011350Y023260D03*
X010681Y023260D03*
X009850Y023260D03*
X009181Y023260D03*
X008050Y023460D03*
X007381Y023460D03*
X006350Y023460D03*
X005681Y023460D03*
X005681Y022560D03*
X006350Y022560D03*
X007381Y022560D03*
X008050Y022560D03*
X009181Y024660D03*
X009850Y024660D03*
X009850Y025660D03*
X009181Y025660D03*
X009181Y026560D03*
X009850Y026560D03*
X008150Y026860D03*
X007481Y026860D03*
X004350Y026360D03*
X003681Y026360D03*
X003681Y025460D03*
X004350Y025460D03*
X004350Y024460D03*
X003681Y024460D03*
X003681Y023560D03*
X004350Y023560D03*
X005681Y024760D03*
X006350Y024760D03*
X022481Y015760D03*
X023150Y015760D03*
X023150Y014760D03*
X022481Y014760D03*
X022481Y013760D03*
X023150Y013760D03*
X023150Y012760D03*
X022481Y012760D03*
X023781Y008160D03*
X024450Y008160D03*
X007850Y010960D03*
X007181Y010960D03*
X005550Y009960D03*
X004881Y009960D03*
X004750Y010860D03*
X004081Y010860D03*
X005181Y008160D03*
X005850Y008160D03*
D21*
X011184Y017868D03*
X011184Y018852D03*
D22*
X008822Y018360D03*
D23*
X027216Y023960D03*
X027216Y024960D03*
X027216Y025960D03*
D24*
X020716Y022560D03*
X019716Y022560D03*
X018716Y022560D03*
D25*
X019116Y025260D03*
X020116Y025260D03*
X021116Y025260D03*
X021116Y026260D03*
X020116Y026260D03*
X019116Y026260D03*
X018116Y026260D03*
X017116Y026260D03*
X016116Y026260D03*
X015116Y026260D03*
X015116Y025260D03*
X016116Y025260D03*
X017116Y025260D03*
X018116Y025260D03*
D26*
X007323Y025476D03*
X007323Y025732D03*
X007323Y025988D03*
X007323Y026244D03*
X005709Y026244D03*
X005709Y025988D03*
X005709Y025732D03*
X005709Y025476D03*
D27*
X003616Y004360D03*
X025816Y004360D03*
D28*
X006290Y010927D03*
X005542Y010927D03*
X005916Y011793D03*
D29*
X006316Y009960D03*
X007816Y008260D03*
X011216Y010460D03*
X012316Y010360D03*
X012816Y010360D03*
X013716Y009960D03*
X014916Y009860D03*
X015216Y010260D03*
X014816Y010760D03*
X015016Y009260D03*
X013316Y008360D03*
X012916Y007960D03*
X012516Y007560D03*
X012116Y007160D03*
X008216Y005060D03*
X007616Y004260D03*
X003016Y007260D03*
X002016Y009160D03*
X006216Y016360D03*
X008916Y017560D03*
X008816Y019460D03*
X008116Y019860D03*
X007916Y020460D03*
X007816Y021260D03*
X008416Y021260D03*
X009016Y021460D03*
X005916Y021260D03*
X005416Y020860D03*
X003016Y023260D03*
X002316Y023660D03*
X003016Y024060D03*
X002116Y025160D03*
X005016Y024460D03*
X006316Y025460D03*
X006816Y026560D03*
X008616Y025260D03*
X010216Y023960D03*
X012316Y022960D03*
X014316Y024360D03*
X013416Y025460D03*
X014316Y026460D03*
X016616Y022660D03*
X014516Y021460D03*
X016616Y021260D03*
X014816Y019660D03*
X016116Y019160D03*
X017016Y018160D03*
X018816Y018260D03*
X020016Y019560D03*
X022516Y021760D03*
X023416Y025460D03*
X027616Y017960D03*
X023416Y017160D03*
X022716Y017560D03*
X019516Y016660D03*
X019516Y015860D03*
X019416Y015260D03*
X019916Y014960D03*
X020416Y014760D03*
X020416Y014160D03*
X019916Y013460D03*
X020416Y012960D03*
X018916Y013460D03*
X021816Y012160D03*
X020416Y010460D03*
X019516Y009560D03*
X021516Y009560D03*
X023016Y008660D03*
X022716Y006560D03*
X021516Y004760D03*
X022616Y002060D03*
X015316Y014860D03*
X015716Y015460D03*
X015716Y016060D03*
X016416Y016360D03*
X016416Y015560D03*
X016816Y015160D03*
X018716Y016060D03*
D30*
X004316Y014860D03*
X003516Y014860D03*
M02*
