G75*
G70*
%OFA0B0*%
%FSLAX24Y24*%
%IPPOS*%
%LPD*%
%AMOC8*
5,1,8,0,0,1.08239X$1,22.5*
%
%ADD10C,0.0100*%
%ADD11R,0.1614X0.1969*%
%ADD12OC8,0.0600*%
%ADD13O,0.1200X0.0600*%
%ADD14C,0.0550*%
%ADD15O,0.0520X0.1040*%
%ADD16O,0.1120X0.0560*%
%ADD17O,0.0560X0.1120*%
%ADD18OC8,0.0560*%
%ADD19R,0.0512X0.0591*%
%ADD20R,0.1000X0.1000*%
%ADD21R,0.1500X0.1500*%
%ADD22R,0.5000X0.5000*%
%ADD23C,0.0360*%
%ADD24C,0.0200*%
%ADD25C,0.0480*%
%ADD26C,0.0080*%
D10*
X006516Y006960D02*
X006516Y002360D01*
X007116Y001760D01*
X022316Y001760D01*
X022616Y002060D01*
X023416Y002060D01*
X025716Y004360D01*
X025816Y004360D01*
X023016Y004315D02*
X006736Y004315D01*
X006736Y004413D02*
X021438Y004413D01*
X021446Y004410D02*
X021585Y004410D01*
X021714Y004463D01*
X021812Y004562D01*
X021866Y004690D01*
X021866Y004829D01*
X021812Y004958D01*
X021714Y005057D01*
X021585Y005110D01*
X021446Y005110D01*
X021317Y005057D01*
X021241Y004980D01*
X008607Y004980D01*
X008566Y005021D01*
X008566Y005129D01*
X008512Y005258D01*
X008414Y005357D01*
X008285Y005410D01*
X008146Y005410D01*
X008017Y005357D01*
X007919Y005258D01*
X007866Y005129D01*
X007866Y004990D01*
X007919Y004862D01*
X008017Y004763D01*
X008146Y004710D01*
X008254Y004710D01*
X008296Y004669D01*
X008424Y004540D01*
X021241Y004540D01*
X021317Y004463D01*
X021446Y004410D01*
X021593Y004413D02*
X023016Y004413D01*
X023016Y004512D02*
X021762Y004512D01*
X021832Y004610D02*
X023016Y004610D01*
X023016Y004709D02*
X021866Y004709D01*
X021866Y004807D02*
X023016Y004807D01*
X023016Y004906D02*
X021834Y004906D01*
X021766Y005004D02*
X023016Y005004D01*
X023016Y005103D02*
X021602Y005103D01*
X021430Y005103D02*
X008566Y005103D01*
X008582Y005004D02*
X021265Y005004D01*
X021516Y004760D02*
X008516Y004760D01*
X008216Y005060D01*
X008536Y005202D02*
X023016Y005202D01*
X023016Y005300D02*
X008470Y005300D01*
X008312Y005399D02*
X023016Y005399D01*
X023016Y005497D02*
X006736Y005497D01*
X006736Y005399D02*
X008119Y005399D01*
X007961Y005300D02*
X006736Y005300D01*
X006736Y005202D02*
X007895Y005202D01*
X007866Y005103D02*
X006736Y005103D01*
X006736Y005004D02*
X007866Y005004D01*
X007900Y004906D02*
X006736Y004906D01*
X006736Y004807D02*
X007973Y004807D01*
X008255Y004709D02*
X006736Y004709D01*
X006736Y004610D02*
X008354Y004610D01*
X006736Y004512D02*
X021269Y004512D01*
X021585Y005726D02*
X020765Y005726D01*
X020765Y006810D01*
X020666Y006810D01*
X020666Y005726D01*
X019846Y005726D01*
X019759Y005813D01*
X019759Y006810D01*
X020665Y006810D01*
X020665Y006910D01*
X019759Y006910D01*
X019759Y007906D01*
X019846Y007994D01*
X020666Y007994D01*
X020666Y006910D01*
X020765Y006910D01*
X020765Y007994D01*
X021585Y007994D01*
X021673Y007906D01*
X021673Y006910D01*
X020766Y006910D01*
X020766Y006810D01*
X021673Y006810D01*
X021673Y005813D01*
X021585Y005726D01*
X021652Y005793D02*
X023016Y005793D01*
X023016Y005891D02*
X021673Y005891D01*
X021673Y005990D02*
X023016Y005990D01*
X023016Y006088D02*
X021673Y006088D01*
X021673Y006187D02*
X023016Y006187D01*
X023016Y006286D02*
X021673Y006286D01*
X021673Y006384D02*
X023016Y006384D01*
X023016Y006483D02*
X021673Y006483D01*
X021673Y006581D02*
X023016Y006581D01*
X023016Y006680D02*
X021673Y006680D01*
X021673Y006778D02*
X023016Y006778D01*
X023016Y006877D02*
X020766Y006877D01*
X020765Y006975D02*
X020666Y006975D01*
X020665Y006877D02*
X012327Y006877D01*
X012314Y006863D02*
X012391Y006940D01*
X016724Y006940D01*
X016907Y006940D01*
X017307Y007340D01*
X017436Y007469D01*
X017436Y010951D01*
X017372Y011015D01*
X017404Y011015D01*
X017517Y011062D01*
X017896Y010683D01*
X017896Y010669D01*
X018124Y010440D01*
X018307Y010440D01*
X019224Y010440D01*
X019296Y010369D01*
X019296Y009835D01*
X019219Y009758D01*
X019166Y009629D01*
X019166Y009490D01*
X019219Y009362D01*
X019317Y009263D01*
X019446Y009210D01*
X019585Y009210D01*
X019714Y009263D01*
X019791Y009340D01*
X021241Y009340D01*
X021317Y009263D01*
X021446Y009210D01*
X021585Y009210D01*
X021714Y009263D01*
X021812Y009362D01*
X021866Y009490D01*
X021866Y009629D01*
X021812Y009758D01*
X021714Y009857D01*
X021585Y009910D01*
X021446Y009910D01*
X021317Y009857D01*
X021241Y009780D01*
X019791Y009780D01*
X019736Y009835D01*
X019736Y010369D01*
X019736Y010551D01*
X019647Y010640D01*
X019924Y010640D01*
X020066Y010499D01*
X020066Y010390D01*
X020119Y010262D01*
X020217Y010163D01*
X020346Y010110D01*
X020485Y010110D01*
X020614Y010163D01*
X020712Y010262D01*
X020766Y010390D01*
X020766Y010529D01*
X020712Y010658D01*
X020630Y010740D01*
X023731Y010740D01*
X023646Y010654D01*
X023646Y010265D01*
X023921Y009990D01*
X024310Y009990D01*
X024586Y010265D01*
X024586Y010654D01*
X024500Y010740D01*
X024731Y010740D01*
X024646Y010654D01*
X024646Y010265D01*
X024921Y009990D01*
X025310Y009990D01*
X025586Y010265D01*
X025586Y010479D01*
X025646Y010419D01*
X025646Y010265D01*
X025921Y009990D01*
X026310Y009990D01*
X026586Y010265D01*
X026586Y010654D01*
X026310Y010930D01*
X025921Y010930D01*
X025839Y010848D01*
X025636Y011051D01*
X025507Y011180D01*
X025500Y011180D01*
X025586Y011265D01*
X025586Y011654D01*
X025336Y011904D01*
X025336Y011940D01*
X025424Y011940D01*
X025678Y011687D01*
X025646Y011654D01*
X025646Y011265D01*
X025921Y010990D01*
X026310Y010990D01*
X026586Y011265D01*
X026586Y011654D01*
X026310Y011930D01*
X026057Y011930D01*
X025736Y012251D01*
X025607Y012380D01*
X023807Y012380D01*
X023624Y012380D01*
X023124Y011880D01*
X020907Y011880D01*
X020736Y012051D01*
X020607Y012180D01*
X018907Y012180D01*
X018724Y012180D01*
X018436Y011891D01*
X018404Y011905D01*
X018227Y011905D01*
X018106Y011854D01*
X018106Y012057D01*
X018045Y012117D01*
X018026Y012136D01*
X017983Y012180D01*
X017954Y012180D01*
X017636Y012372D01*
X017636Y015569D01*
X017636Y015751D01*
X017036Y016351D01*
X016928Y016458D01*
X016907Y016480D01*
X016843Y016480D01*
X016733Y016507D01*
X016712Y016558D01*
X016614Y016657D01*
X016485Y016710D01*
X016346Y016710D01*
X016217Y016657D01*
X016119Y016558D01*
X016066Y016429D01*
X016066Y016290D01*
X016111Y016180D01*
X016045Y016180D01*
X016012Y016258D01*
X015914Y016357D01*
X015785Y016410D01*
X015646Y016410D01*
X015517Y016357D01*
X015419Y016258D01*
X015366Y016129D01*
X015366Y015990D01*
X015419Y015862D01*
X015517Y015763D01*
X015525Y015760D01*
X015517Y015757D01*
X015419Y015658D01*
X015366Y015529D01*
X015366Y015390D01*
X015411Y015280D01*
X015324Y015280D01*
X015254Y015210D01*
X015246Y015210D01*
X015117Y015157D01*
X015019Y015058D01*
X014966Y014929D01*
X014966Y014790D01*
X015019Y014662D01*
X013636Y014662D01*
X013636Y014760D02*
X014978Y014760D01*
X014966Y014859D02*
X013636Y014859D01*
X013636Y014957D02*
X014977Y014957D01*
X015018Y015056D02*
X013636Y015056D01*
X013636Y015154D02*
X015115Y015154D01*
X015298Y015253D02*
X013636Y015253D01*
X013636Y015351D02*
X013507Y015480D01*
X013386Y015601D01*
X013386Y015954D01*
X013110Y016230D01*
X012721Y016230D01*
X012446Y015954D01*
X012446Y015565D01*
X012721Y015290D01*
X013074Y015290D01*
X013196Y015169D01*
X013196Y015144D01*
X013110Y015230D01*
X012721Y015230D01*
X012636Y015144D01*
X012636Y015169D01*
X012636Y015351D01*
X012386Y015601D01*
X012386Y015954D01*
X012110Y016230D01*
X011721Y016230D01*
X011446Y015954D01*
X011446Y015565D01*
X011721Y015290D01*
X012074Y015290D01*
X012196Y015169D01*
X012196Y015144D01*
X012110Y015230D01*
X011721Y015230D01*
X011636Y015144D01*
X011636Y015169D01*
X011636Y015351D01*
X011386Y015601D01*
X011386Y015954D01*
X011110Y016230D01*
X010721Y016230D01*
X010446Y015954D01*
X010446Y015565D01*
X010721Y015290D01*
X011074Y015290D01*
X011196Y015169D01*
X011196Y015144D01*
X011110Y015230D01*
X010721Y015230D01*
X010636Y015144D01*
X010636Y015169D01*
X010636Y015351D01*
X010386Y015601D01*
X010386Y015954D01*
X010110Y016230D01*
X009721Y016230D01*
X009446Y015954D01*
X009446Y015565D01*
X009721Y015290D01*
X010074Y015290D01*
X010196Y015169D01*
X010196Y015144D01*
X010110Y015230D01*
X009721Y015230D01*
X009446Y014954D01*
X009446Y014565D01*
X009696Y014315D01*
X009696Y014269D01*
X009824Y014140D01*
X011196Y012769D01*
X011196Y012551D01*
X010724Y012080D01*
X010596Y011951D01*
X010596Y011809D01*
X010568Y011837D01*
X010404Y011905D01*
X010227Y011905D01*
X010064Y011837D01*
X009938Y011712D01*
X009871Y011548D01*
X009871Y011371D01*
X009938Y011208D01*
X010064Y011083D01*
X010227Y011015D01*
X010404Y011015D01*
X010568Y011083D01*
X010596Y011111D01*
X010596Y010769D01*
X010724Y010640D01*
X010724Y010640D01*
X010866Y010499D01*
X010866Y010390D01*
X010919Y010262D01*
X011017Y010163D01*
X011146Y010110D01*
X011285Y010110D01*
X011414Y010163D01*
X011512Y010262D01*
X011566Y010390D01*
X011566Y010529D01*
X011512Y010658D01*
X011414Y010757D01*
X011285Y010810D01*
X011177Y010810D01*
X011036Y010951D01*
X011036Y011111D01*
X011064Y011083D01*
X011227Y011015D01*
X011404Y011015D01*
X011499Y011054D01*
X011496Y011051D01*
X011496Y010869D01*
X011966Y010399D01*
X011966Y010290D01*
X012019Y010162D01*
X012117Y010063D01*
X012246Y010010D01*
X012385Y010010D01*
X012514Y010063D01*
X012566Y010115D01*
X012617Y010063D01*
X012746Y010010D01*
X012885Y010010D01*
X013014Y010063D01*
X013112Y010162D01*
X013139Y010226D01*
X013366Y009999D01*
X013366Y009890D01*
X013419Y009762D01*
X013517Y009663D01*
X013646Y009610D01*
X013785Y009610D01*
X013914Y009663D01*
X014012Y009762D01*
X014038Y009824D01*
X014064Y009801D01*
X014065Y009799D01*
X014069Y009796D01*
X014130Y009740D01*
X014133Y009740D01*
X014666Y009274D01*
X014666Y009190D01*
X014719Y009062D01*
X014817Y008963D01*
X014946Y008910D01*
X015085Y008910D01*
X015214Y008963D01*
X015312Y009062D01*
X015366Y009190D01*
X015366Y009329D01*
X015312Y009458D01*
X015214Y009557D01*
X015138Y009588D01*
X015212Y009662D01*
X015266Y009790D01*
X015266Y009910D01*
X015285Y009910D01*
X015396Y009956D01*
X015396Y008751D01*
X015224Y008580D01*
X013591Y008580D01*
X013514Y008657D01*
X013385Y008710D01*
X013246Y008710D01*
X013117Y008657D01*
X013019Y008558D01*
X012966Y008429D01*
X012966Y008310D01*
X012846Y008310D01*
X012717Y008257D01*
X012619Y008158D01*
X012566Y008029D01*
X012566Y007910D01*
X012446Y007910D01*
X012317Y007857D01*
X012219Y007758D01*
X012166Y007629D01*
X012166Y007510D01*
X012046Y007510D01*
X011917Y007457D01*
X011819Y007358D01*
X011766Y007229D01*
X011766Y007090D01*
X011819Y006962D01*
X011917Y006863D01*
X012046Y006810D01*
X012185Y006810D01*
X012314Y006863D01*
X012116Y007160D02*
X016816Y007160D01*
X017216Y007560D01*
X017216Y010860D01*
X016916Y011160D01*
X016616Y011060D02*
X016616Y007960D01*
X016216Y007560D01*
X012516Y007560D01*
X012166Y007567D02*
X010193Y007567D01*
X010193Y007665D02*
X012180Y007665D01*
X012224Y007764D02*
X010193Y007764D01*
X010193Y007862D02*
X012331Y007862D01*
X012566Y007961D02*
X010146Y007961D01*
X010193Y007914D02*
X010093Y008014D01*
X008443Y008014D01*
X008166Y008292D01*
X008166Y008329D01*
X008112Y008458D01*
X008014Y008557D01*
X007885Y008610D01*
X007746Y008610D01*
X007617Y008557D01*
X007519Y008458D01*
X007466Y008329D01*
X007466Y008190D01*
X007519Y008062D01*
X007617Y007963D01*
X007746Y007910D01*
X007784Y007910D01*
X008239Y007455D01*
X008239Y005805D01*
X008338Y005706D01*
X010093Y005706D01*
X010193Y005805D01*
X010193Y007914D01*
X010193Y007468D02*
X011945Y007468D01*
X011830Y007370D02*
X010193Y007370D01*
X010193Y007271D02*
X011783Y007271D01*
X011766Y007172D02*
X010193Y007172D01*
X010193Y007074D02*
X011772Y007074D01*
X011813Y006975D02*
X010193Y006975D01*
X010193Y006877D02*
X011904Y006877D01*
X010193Y006778D02*
X019759Y006778D01*
X019759Y006680D02*
X010193Y006680D01*
X010193Y006581D02*
X019759Y006581D01*
X019759Y006483D02*
X010193Y006483D01*
X010193Y006384D02*
X019759Y006384D01*
X019759Y006286D02*
X010193Y006286D01*
X010193Y006187D02*
X019759Y006187D01*
X019759Y006088D02*
X010193Y006088D01*
X010193Y005990D02*
X019759Y005990D01*
X019759Y005891D02*
X010193Y005891D01*
X010180Y005793D02*
X019779Y005793D01*
X020666Y005793D02*
X020765Y005793D01*
X020765Y005891D02*
X020666Y005891D01*
X020666Y005990D02*
X020765Y005990D01*
X020765Y006088D02*
X020666Y006088D01*
X020666Y006187D02*
X020765Y006187D01*
X020765Y006286D02*
X020666Y006286D01*
X020666Y006384D02*
X020765Y006384D01*
X020765Y006483D02*
X020666Y006483D01*
X020666Y006581D02*
X020765Y006581D01*
X020765Y006680D02*
X020666Y006680D01*
X020666Y006778D02*
X020765Y006778D01*
X020765Y007074D02*
X020666Y007074D01*
X020666Y007172D02*
X020765Y007172D01*
X020765Y007271D02*
X020666Y007271D01*
X020666Y007370D02*
X020765Y007370D01*
X020765Y007468D02*
X020666Y007468D01*
X020666Y007567D02*
X020765Y007567D01*
X020765Y007665D02*
X020666Y007665D01*
X020666Y007764D02*
X020765Y007764D01*
X020765Y007862D02*
X020666Y007862D01*
X020666Y007961D02*
X020765Y007961D01*
X021618Y007961D02*
X028466Y007961D01*
X028466Y008059D02*
X017436Y008059D01*
X017436Y007961D02*
X019813Y007961D01*
X019759Y007862D02*
X017436Y007862D01*
X017436Y007764D02*
X019759Y007764D01*
X019759Y007665D02*
X017436Y007665D01*
X017436Y007567D02*
X019759Y007567D01*
X019759Y007468D02*
X017435Y007468D01*
X017336Y007370D02*
X019759Y007370D01*
X019759Y007271D02*
X017238Y007271D01*
X017139Y007172D02*
X019759Y007172D01*
X019759Y007074D02*
X017041Y007074D01*
X016942Y006975D02*
X019759Y006975D01*
X021673Y006975D02*
X023016Y006975D01*
X023016Y007074D02*
X021673Y007074D01*
X021673Y007172D02*
X028466Y007172D01*
X028466Y007160D02*
X023016Y007160D01*
X023016Y002280D01*
X022891Y002280D01*
X022814Y002357D01*
X022685Y002410D01*
X022546Y002410D01*
X022417Y002357D01*
X022319Y002258D01*
X022266Y002129D01*
X022266Y002021D01*
X022224Y001980D01*
X007207Y001980D01*
X006736Y002451D01*
X006736Y006869D01*
X006736Y007051D01*
X002536Y011251D01*
X002536Y023385D01*
X002612Y023462D01*
X002666Y023590D01*
X002666Y023729D01*
X002612Y023858D01*
X002514Y023957D01*
X002385Y024010D01*
X002246Y024010D01*
X002117Y023957D01*
X002019Y023858D01*
X001966Y023729D01*
X001966Y023590D01*
X002019Y023462D01*
X002096Y023385D01*
X002096Y011069D01*
X002224Y010940D01*
X006004Y007160D01*
X003353Y007160D01*
X003366Y007190D01*
X003366Y007329D01*
X003312Y007458D01*
X003236Y007535D01*
X003236Y008969D01*
X003236Y009151D01*
X003168Y009218D01*
X003107Y009280D01*
X003102Y009280D01*
X001936Y010356D01*
X001936Y024769D01*
X001997Y024830D01*
X002046Y024810D01*
X002185Y024810D01*
X002314Y024863D01*
X002412Y024962D01*
X002466Y025090D01*
X002466Y025229D01*
X002412Y025358D01*
X002314Y025457D01*
X002185Y025510D01*
X002046Y025510D01*
X001917Y025457D01*
X001819Y025358D01*
X001766Y025229D01*
X001766Y025221D01*
X001496Y024951D01*
X001496Y024769D01*
X001496Y010169D01*
X001624Y010040D01*
X001630Y010040D01*
X002796Y008964D01*
X002796Y007535D01*
X002719Y007458D01*
X002666Y007329D01*
X002666Y007190D01*
X002678Y007160D01*
X000966Y007160D01*
X000966Y009828D01*
X001004Y009790D01*
X001666Y009128D01*
X001666Y009090D01*
X001719Y008962D01*
X001817Y008863D01*
X001946Y008810D01*
X002085Y008810D01*
X002214Y008863D01*
X002312Y008962D01*
X002366Y009090D01*
X002366Y009229D01*
X002312Y009358D01*
X002214Y009457D01*
X002085Y009510D01*
X002047Y009510D01*
X001386Y010172D01*
X001386Y025548D01*
X002627Y026790D01*
X006551Y026790D01*
X006519Y026758D01*
X006466Y026629D01*
X006466Y026521D01*
X004796Y024851D01*
X004796Y024735D01*
X004719Y024658D01*
X004666Y024529D01*
X004666Y024390D01*
X004719Y024262D01*
X004817Y024163D01*
X004946Y024110D01*
X005085Y024110D01*
X005214Y024163D01*
X005312Y024262D01*
X005366Y024390D01*
X005366Y024529D01*
X005312Y024658D01*
X005269Y024702D01*
X006777Y026210D01*
X006885Y026210D01*
X007014Y026263D01*
X007112Y026362D01*
X007166Y026490D01*
X007166Y026540D01*
X013924Y026540D01*
X013966Y026499D01*
X013966Y026390D01*
X014019Y026262D01*
X014117Y026163D01*
X014246Y026110D01*
X014246Y024710D01*
X014117Y024657D01*
X014019Y024558D01*
X013966Y024429D01*
X013966Y024290D01*
X014019Y024162D01*
X014117Y024063D01*
X014246Y024010D01*
X014385Y024010D01*
X014514Y024063D01*
X014541Y024090D01*
X015304Y024090D01*
X015646Y023748D01*
X015646Y021872D01*
X015604Y021830D01*
X014727Y021830D01*
X014504Y021830D01*
X014484Y021810D01*
X014446Y021810D01*
X014317Y021757D01*
X014219Y021658D01*
X014166Y021529D01*
X014166Y021390D01*
X014219Y021262D01*
X014246Y021235D01*
X014246Y020072D01*
X014246Y019848D01*
X014466Y019628D01*
X014466Y019590D01*
X014519Y019462D01*
X014617Y019363D01*
X014746Y019310D01*
X014885Y019310D01*
X015014Y019363D01*
X015112Y019462D01*
X015166Y019590D01*
X015166Y019729D01*
X015112Y019858D01*
X015014Y019957D01*
X014885Y020010D01*
X014847Y020010D01*
X014786Y020072D01*
X014786Y021235D01*
X014812Y021262D01*
X014824Y021290D01*
X015827Y021290D01*
X015986Y021448D01*
X016186Y021648D01*
X016186Y021872D01*
X016186Y023748D01*
X016186Y023972D01*
X015527Y024630D01*
X015304Y024630D01*
X014786Y024630D01*
X014786Y024672D01*
X014786Y024954D01*
X014929Y024810D01*
X015302Y024810D01*
X015566Y025073D01*
X015566Y025446D01*
X015302Y025710D01*
X014929Y025710D01*
X014786Y025566D01*
X014786Y025954D01*
X014929Y025810D01*
X015302Y025810D01*
X015566Y026073D01*
X015566Y026446D01*
X015302Y026710D01*
X014929Y026710D01*
X014688Y026469D01*
X014666Y026492D01*
X014666Y026529D01*
X014612Y026658D01*
X014514Y026757D01*
X014433Y026790D01*
X021404Y026790D01*
X021646Y026548D01*
X021646Y026172D01*
X021566Y026092D01*
X021566Y026446D01*
X021302Y026710D01*
X020929Y026710D01*
X020666Y026446D01*
X020666Y026073D01*
X020929Y025810D01*
X021284Y025810D01*
X021184Y025710D01*
X020929Y025710D01*
X020666Y025446D01*
X020666Y025073D01*
X020929Y024810D01*
X021302Y024810D01*
X021566Y025073D01*
X021566Y025328D01*
X022186Y025948D01*
X022186Y026172D01*
X022186Y026548D01*
X022186Y026772D01*
X021647Y027310D01*
X028466Y027310D01*
X028466Y007160D01*
X028466Y007271D02*
X021673Y007271D01*
X021673Y007370D02*
X028466Y007370D01*
X028466Y007468D02*
X021673Y007468D01*
X021673Y007567D02*
X028466Y007567D01*
X028466Y007665D02*
X021673Y007665D01*
X021673Y007764D02*
X028466Y007764D01*
X028466Y007862D02*
X021673Y007862D01*
X021662Y009242D02*
X028466Y009242D01*
X028466Y009340D02*
X021791Y009340D01*
X021844Y009439D02*
X028466Y009439D01*
X028466Y009537D02*
X021866Y009537D01*
X021863Y009636D02*
X028466Y009636D01*
X028466Y009735D02*
X021822Y009735D01*
X021737Y009833D02*
X028466Y009833D01*
X028466Y009932D02*
X019736Y009932D01*
X019736Y010030D02*
X023881Y010030D01*
X023782Y010129D02*
X020531Y010129D01*
X020678Y010227D02*
X023683Y010227D01*
X023646Y010326D02*
X020739Y010326D01*
X020766Y010424D02*
X023646Y010424D01*
X023646Y010523D02*
X020766Y010523D01*
X020727Y010621D02*
X023646Y010621D01*
X023711Y010720D02*
X020650Y010720D01*
X020416Y010460D02*
X020016Y010860D01*
X018316Y010860D01*
X018216Y010960D01*
X018116Y010760D02*
X018216Y010660D01*
X019316Y010660D01*
X019516Y010460D01*
X019516Y009560D01*
X021516Y009560D01*
X021369Y009242D02*
X019662Y009242D01*
X019369Y009242D02*
X017436Y009242D01*
X017436Y009340D02*
X019240Y009340D01*
X019187Y009439D02*
X017436Y009439D01*
X017436Y009537D02*
X019166Y009537D01*
X019168Y009636D02*
X017436Y009636D01*
X017436Y009735D02*
X019209Y009735D01*
X019294Y009833D02*
X017436Y009833D01*
X017436Y009932D02*
X019296Y009932D01*
X019296Y010030D02*
X017436Y010030D01*
X017436Y010129D02*
X019296Y010129D01*
X019296Y010227D02*
X017436Y010227D01*
X017436Y010326D02*
X019296Y010326D01*
X019240Y010424D02*
X017436Y010424D01*
X017436Y010523D02*
X018041Y010523D01*
X017943Y010621D02*
X017436Y010621D01*
X017436Y010720D02*
X017858Y010720D01*
X017760Y010819D02*
X017436Y010819D01*
X017436Y010917D02*
X017661Y010917D01*
X017563Y011016D02*
X017406Y011016D01*
X018316Y011460D02*
X018816Y011960D01*
X020516Y011960D01*
X020816Y011660D01*
X023216Y011660D01*
X023716Y012160D01*
X025516Y012160D01*
X026116Y011560D01*
X026116Y011460D01*
X026436Y011804D02*
X026795Y011804D01*
X026697Y011705D02*
X026535Y011705D01*
X026586Y011607D02*
X026646Y011607D01*
X026646Y011654D02*
X026646Y011265D01*
X026921Y010990D01*
X027310Y010990D01*
X027586Y011265D01*
X027586Y011654D01*
X027310Y011930D01*
X026921Y011930D01*
X026646Y011654D01*
X026646Y011508D02*
X026586Y011508D01*
X026586Y011410D02*
X026646Y011410D01*
X026646Y011311D02*
X026586Y011311D01*
X026533Y011213D02*
X026698Y011213D01*
X026797Y011114D02*
X026435Y011114D01*
X026336Y011016D02*
X026895Y011016D01*
X026921Y010930D02*
X026646Y010654D01*
X026646Y010265D01*
X026921Y009990D01*
X027310Y009990D01*
X027586Y010265D01*
X027586Y010654D01*
X027310Y010930D01*
X026921Y010930D01*
X026908Y010917D02*
X026323Y010917D01*
X026421Y010819D02*
X026810Y010819D01*
X026711Y010720D02*
X026520Y010720D01*
X026586Y010621D02*
X026646Y010621D01*
X026646Y010523D02*
X026586Y010523D01*
X026586Y010424D02*
X026646Y010424D01*
X026646Y010326D02*
X026586Y010326D01*
X026548Y010227D02*
X026683Y010227D01*
X026782Y010129D02*
X026449Y010129D01*
X026351Y010030D02*
X026881Y010030D01*
X027351Y010030D02*
X028466Y010030D01*
X028466Y010129D02*
X027449Y010129D01*
X027548Y010227D02*
X028466Y010227D01*
X028466Y010326D02*
X027586Y010326D01*
X027586Y010424D02*
X028466Y010424D01*
X028466Y010523D02*
X027586Y010523D01*
X027586Y010621D02*
X028466Y010621D01*
X028466Y010720D02*
X027520Y010720D01*
X027421Y010819D02*
X028466Y010819D01*
X028466Y010917D02*
X027323Y010917D01*
X027336Y011016D02*
X028466Y011016D01*
X028466Y011114D02*
X027435Y011114D01*
X027533Y011213D02*
X028466Y011213D01*
X028466Y011311D02*
X027586Y011311D01*
X027586Y011410D02*
X028466Y011410D01*
X028466Y011508D02*
X027586Y011508D01*
X027586Y011607D02*
X028466Y011607D01*
X028466Y011705D02*
X027535Y011705D01*
X027436Y011804D02*
X028466Y011804D01*
X028466Y011903D02*
X027338Y011903D01*
X026894Y011903D02*
X026338Y011903D01*
X025985Y012001D02*
X028466Y012001D01*
X028466Y012100D02*
X025887Y012100D01*
X025788Y012198D02*
X028466Y012198D01*
X028466Y012297D02*
X025690Y012297D01*
X025116Y011860D02*
X025016Y011960D01*
X023816Y011960D01*
X023316Y011460D01*
X020316Y011460D01*
X020116Y011060D02*
X019716Y011060D01*
X019316Y011460D01*
X018447Y011903D02*
X018410Y011903D01*
X018546Y012001D02*
X018106Y012001D01*
X018106Y011903D02*
X018222Y011903D01*
X018063Y012100D02*
X018644Y012100D01*
X017924Y012198D02*
X023443Y012198D01*
X023541Y012297D02*
X017761Y012297D01*
X017636Y012395D02*
X028466Y012395D01*
X028466Y012494D02*
X017636Y012494D01*
X017636Y012592D02*
X028466Y012592D01*
X028466Y012691D02*
X020642Y012691D01*
X020614Y012663D02*
X020712Y012762D01*
X020766Y012890D01*
X020766Y013029D01*
X020720Y013140D01*
X020924Y013140D01*
X021107Y013140D01*
X021807Y013840D01*
X023124Y013840D01*
X023396Y013569D01*
X023396Y013351D01*
X023396Y013169D01*
X023696Y012869D01*
X023824Y012740D01*
X024524Y012740D01*
X024707Y012740D01*
X024957Y012990D01*
X025310Y012990D01*
X025586Y013265D01*
X025586Y013654D01*
X025310Y013930D01*
X024921Y013930D01*
X024646Y013654D01*
X024646Y013301D01*
X024524Y013180D01*
X024500Y013180D01*
X024586Y013265D01*
X024586Y013654D01*
X024310Y013930D01*
X023957Y013930D01*
X023647Y014240D01*
X023671Y014240D01*
X023921Y013990D01*
X024310Y013990D01*
X024586Y014265D01*
X024586Y014654D01*
X024500Y014740D01*
X024731Y014740D01*
X024646Y014654D01*
X024646Y014265D01*
X024921Y013990D01*
X025310Y013990D01*
X025396Y014075D01*
X025396Y014051D01*
X025396Y013869D01*
X025646Y013619D01*
X025646Y013265D01*
X025921Y012990D01*
X026310Y012990D01*
X026586Y013265D01*
X026586Y013654D01*
X026310Y013930D01*
X025957Y013930D01*
X025836Y014051D01*
X025836Y014075D01*
X025921Y013990D01*
X026310Y013990D01*
X026396Y014075D01*
X026396Y014051D01*
X026396Y013869D01*
X026646Y013619D01*
X026646Y013265D01*
X026921Y012990D01*
X027310Y012990D01*
X027586Y013265D01*
X027586Y013654D01*
X027310Y013930D01*
X026957Y013930D01*
X026836Y014051D01*
X026836Y014075D01*
X026921Y013990D01*
X027310Y013990D01*
X027586Y014265D01*
X027586Y014654D01*
X027336Y014904D01*
X027336Y014951D01*
X027207Y015080D01*
X026307Y015980D01*
X026124Y015980D01*
X021907Y015980D01*
X021807Y016080D01*
X021624Y016080D01*
X019947Y016080D01*
X020036Y016169D01*
X020107Y016240D01*
X023671Y016240D01*
X023921Y015990D01*
X024310Y015990D01*
X024586Y016265D01*
X024586Y016654D01*
X024310Y016930D01*
X024197Y016930D01*
X024257Y016990D01*
X024310Y016990D01*
X024586Y017265D01*
X024586Y017654D01*
X024500Y017740D01*
X024731Y017740D01*
X024646Y017654D01*
X024646Y017265D01*
X024921Y016990D01*
X025310Y016990D01*
X025586Y017265D01*
X025586Y017654D01*
X025500Y017740D01*
X025731Y017740D01*
X025646Y017654D01*
X025646Y017265D01*
X025921Y016990D01*
X026310Y016990D01*
X026586Y017265D01*
X026586Y017654D01*
X026500Y017740D01*
X026731Y017740D01*
X026646Y017654D01*
X026646Y017265D01*
X026921Y016990D01*
X027310Y016990D01*
X027586Y017265D01*
X027586Y017610D01*
X027685Y017610D01*
X027814Y017663D01*
X027912Y017762D01*
X027966Y017890D01*
X027966Y018029D01*
X027912Y018158D01*
X027814Y018257D01*
X027685Y018310D01*
X027546Y018310D01*
X027417Y018257D01*
X027341Y018180D01*
X023824Y018180D01*
X023696Y018051D01*
X023396Y017751D01*
X023396Y017569D01*
X023396Y017510D01*
X023346Y017510D01*
X023217Y017457D01*
X023119Y017358D01*
X023066Y017229D01*
X023066Y017090D01*
X023119Y016962D01*
X023201Y016880D01*
X019791Y016880D01*
X019714Y016957D01*
X019585Y017010D01*
X019446Y017010D01*
X019317Y016957D01*
X019219Y016858D01*
X019166Y016729D01*
X019166Y016590D01*
X019211Y016480D01*
X019007Y016480D01*
X018824Y016480D01*
X018754Y016410D01*
X018646Y016410D01*
X018517Y016357D01*
X018419Y016258D01*
X018366Y016129D01*
X018366Y015990D01*
X018419Y015862D01*
X018517Y015763D01*
X018646Y015710D01*
X018785Y015710D01*
X018914Y015763D01*
X019012Y015862D01*
X019066Y015990D01*
X019066Y016040D01*
X019211Y016040D01*
X019166Y015929D01*
X019166Y015790D01*
X019219Y015662D01*
X019293Y015588D01*
X019217Y015557D01*
X019119Y015458D01*
X019066Y015329D01*
X019066Y015190D01*
X019119Y015062D01*
X019217Y014963D01*
X019346Y014910D01*
X019485Y014910D01*
X019566Y014943D01*
X019566Y014890D01*
X019619Y014762D01*
X019717Y014663D01*
X019846Y014610D01*
X019985Y014610D01*
X020082Y014650D01*
X020119Y014562D01*
X020217Y014463D01*
X020225Y014460D01*
X020217Y014457D01*
X020119Y014358D01*
X020066Y014229D01*
X020066Y014090D01*
X020119Y013962D01*
X020213Y013868D01*
X020105Y013760D01*
X019985Y013810D01*
X019846Y013810D01*
X019717Y013757D01*
X019619Y013658D01*
X019592Y013594D01*
X019507Y013680D01*
X019324Y013680D01*
X019191Y013680D01*
X019114Y013757D01*
X018985Y013810D01*
X018846Y013810D01*
X018717Y013757D01*
X018619Y013658D01*
X018566Y013529D01*
X018566Y013390D01*
X018619Y013262D01*
X018717Y013163D01*
X018846Y013110D01*
X018985Y013110D01*
X019114Y013163D01*
X019191Y013240D01*
X019324Y013240D01*
X019724Y012840D01*
X019907Y012840D01*
X019924Y012840D01*
X020086Y012840D01*
X020119Y012762D01*
X020217Y012663D01*
X020346Y012610D01*
X020485Y012610D01*
X020614Y012663D01*
X020724Y012789D02*
X023775Y012789D01*
X023696Y012869D02*
X023696Y012869D01*
X023676Y012888D02*
X020765Y012888D01*
X020766Y012986D02*
X023578Y012986D01*
X023479Y013085D02*
X020743Y013085D01*
X020616Y013360D02*
X020416Y013160D01*
X020416Y012960D01*
X020190Y012691D02*
X017636Y012691D01*
X017636Y012789D02*
X020107Y012789D01*
X020016Y013060D02*
X019816Y013060D01*
X019416Y013460D01*
X018916Y013460D01*
X019070Y013775D02*
X019762Y013775D01*
X019637Y013676D02*
X019510Y013676D01*
X019916Y013460D02*
X020116Y013460D01*
X020416Y013760D01*
X020816Y013760D01*
X021516Y014460D01*
X024116Y014460D01*
X024586Y014465D02*
X024646Y014465D01*
X024646Y014563D02*
X024586Y014563D01*
X024578Y014662D02*
X024653Y014662D01*
X024646Y014366D02*
X024586Y014366D01*
X024586Y014268D02*
X024646Y014268D01*
X024742Y014169D02*
X024489Y014169D01*
X024391Y014070D02*
X024840Y014070D01*
X024864Y013873D02*
X024367Y013873D01*
X024465Y013775D02*
X024766Y013775D01*
X024667Y013676D02*
X024564Y013676D01*
X024586Y013578D02*
X024646Y013578D01*
X024646Y013479D02*
X024586Y013479D01*
X024586Y013381D02*
X024646Y013381D01*
X024627Y013282D02*
X024586Y013282D01*
X024528Y013184D02*
X024504Y013184D01*
X024616Y012960D02*
X025116Y013460D01*
X025586Y013479D02*
X025646Y013479D01*
X025646Y013381D02*
X025586Y013381D01*
X025586Y013282D02*
X025646Y013282D01*
X025727Y013184D02*
X025504Y013184D01*
X025405Y013085D02*
X025826Y013085D01*
X026116Y013460D02*
X025616Y013960D01*
X025616Y014760D01*
X025216Y015160D01*
X021616Y015160D01*
X021216Y014760D01*
X020416Y014760D01*
X020216Y014465D02*
X017636Y014465D01*
X017636Y014563D02*
X020118Y014563D01*
X020127Y014366D02*
X017636Y014366D01*
X017636Y014268D02*
X020081Y014268D01*
X020066Y014169D02*
X017636Y014169D01*
X017636Y014070D02*
X020074Y014070D01*
X020115Y013972D02*
X017636Y013972D01*
X017636Y013873D02*
X020207Y013873D01*
X020120Y013775D02*
X020070Y013775D01*
X020516Y013560D02*
X020016Y013060D01*
X019676Y012888D02*
X017636Y012888D01*
X017636Y012986D02*
X019578Y012986D01*
X019479Y013085D02*
X017636Y013085D01*
X017636Y013184D02*
X018697Y013184D01*
X018610Y013282D02*
X017636Y013282D01*
X017636Y013381D02*
X018570Y013381D01*
X018566Y013479D02*
X017636Y013479D01*
X017636Y013578D02*
X018586Y013578D01*
X018637Y013676D02*
X017636Y013676D01*
X017636Y013775D02*
X018762Y013775D01*
X019134Y013184D02*
X019381Y013184D01*
X020516Y013560D02*
X020916Y013560D01*
X021616Y014260D01*
X023316Y014260D01*
X024116Y013460D01*
X023916Y012960D02*
X024616Y012960D01*
X024756Y012789D02*
X028466Y012789D01*
X028466Y012888D02*
X024855Y012888D01*
X024953Y012986D02*
X028466Y012986D01*
X028466Y013085D02*
X027405Y013085D01*
X027504Y013184D02*
X028466Y013184D01*
X028466Y013282D02*
X027586Y013282D01*
X027586Y013381D02*
X028466Y013381D01*
X028466Y013479D02*
X027586Y013479D01*
X027586Y013578D02*
X028466Y013578D01*
X028466Y013676D02*
X027564Y013676D01*
X027465Y013775D02*
X028466Y013775D01*
X028466Y013873D02*
X027367Y013873D01*
X027391Y014070D02*
X028466Y014070D01*
X028466Y013972D02*
X026915Y013972D01*
X026840Y014070D02*
X026836Y014070D01*
X026616Y013960D02*
X027116Y013460D01*
X026646Y013479D02*
X026586Y013479D01*
X026586Y013381D02*
X026646Y013381D01*
X026646Y013282D02*
X026586Y013282D01*
X026504Y013184D02*
X026727Y013184D01*
X026826Y013085D02*
X026405Y013085D01*
X026586Y013578D02*
X026646Y013578D01*
X026588Y013676D02*
X026564Y013676D01*
X026489Y013775D02*
X026465Y013775D01*
X026396Y013873D02*
X026367Y013873D01*
X026396Y013972D02*
X025915Y013972D01*
X025840Y014070D02*
X025836Y014070D01*
X025396Y014070D02*
X025391Y014070D01*
X025396Y013972D02*
X023915Y013972D01*
X023840Y014070D02*
X023816Y014070D01*
X023742Y014169D02*
X023717Y014169D01*
X023216Y014060D02*
X023616Y013660D01*
X023616Y013260D01*
X023916Y012960D01*
X023396Y013184D02*
X021150Y013184D01*
X021249Y013282D02*
X023396Y013282D01*
X023396Y013381D02*
X021348Y013381D01*
X021446Y013479D02*
X023396Y013479D01*
X023387Y013578D02*
X021545Y013578D01*
X021643Y013676D02*
X023288Y013676D01*
X023189Y013775D02*
X021742Y013775D01*
X021716Y014060D02*
X021016Y013360D01*
X020616Y013360D01*
X021716Y014060D02*
X023216Y014060D01*
X021716Y014960D02*
X024916Y014960D01*
X025116Y014760D01*
X025116Y014460D01*
X025367Y013873D02*
X025396Y013873D01*
X025465Y013775D02*
X025489Y013775D01*
X025564Y013676D02*
X025588Y013676D01*
X025586Y013578D02*
X025646Y013578D01*
X026391Y014070D02*
X026396Y014070D01*
X026616Y013960D02*
X026616Y014760D01*
X025816Y015560D01*
X021716Y015560D01*
X021616Y015660D01*
X019916Y015660D01*
X019516Y015260D01*
X019416Y015260D01*
X019066Y015253D02*
X017636Y015253D01*
X017636Y015352D02*
X019075Y015352D01*
X019116Y015450D02*
X017636Y015450D01*
X017636Y015549D02*
X019209Y015549D01*
X019233Y015647D02*
X017636Y015647D01*
X017636Y015746D02*
X018559Y015746D01*
X018436Y015844D02*
X017542Y015844D01*
X017444Y015943D02*
X018385Y015943D01*
X018366Y016041D02*
X017345Y016041D01*
X017247Y016140D02*
X018370Y016140D01*
X018411Y016238D02*
X017148Y016238D01*
X017050Y016337D02*
X018498Y016337D01*
X018780Y016436D02*
X016951Y016436D01*
X016816Y016260D02*
X016416Y016360D01*
X016087Y016238D02*
X016020Y016238D01*
X016066Y016337D02*
X015933Y016337D01*
X016068Y016436D02*
X005502Y016436D01*
X005601Y016534D02*
X016109Y016534D01*
X016193Y016633D02*
X005699Y016633D01*
X005736Y016669D02*
X005607Y016540D01*
X004983Y015916D01*
X004801Y015916D01*
X004586Y015916D01*
X004586Y015566D01*
X004486Y015466D01*
X003345Y015466D01*
X003246Y015566D01*
X003246Y016340D01*
X003107Y016340D01*
X002924Y016340D01*
X002796Y016469D01*
X002796Y018851D01*
X002924Y018980D01*
X002996Y018980D01*
X002996Y020304D01*
X003095Y020403D01*
X003385Y020403D01*
X003385Y020452D01*
X003318Y020519D01*
X003318Y020701D01*
X003385Y020768D01*
X003385Y020901D01*
X003514Y021030D01*
X003696Y021030D01*
X003835Y020891D01*
X003845Y020901D01*
X003974Y021030D01*
X004357Y021030D01*
X004486Y020901D01*
X004486Y020719D01*
X004486Y020501D01*
X004486Y020403D01*
X004548Y020403D01*
X005066Y020921D01*
X005066Y020929D01*
X005119Y021058D01*
X005217Y021157D01*
X005346Y021210D01*
X005485Y021210D01*
X005572Y021174D01*
X005566Y021190D01*
X005566Y021329D01*
X005619Y021458D01*
X005717Y021557D01*
X005846Y021610D01*
X005985Y021610D01*
X006114Y021557D01*
X006212Y021458D01*
X006266Y021329D01*
X006266Y021190D01*
X006212Y021062D01*
X006136Y020985D01*
X006136Y020469D01*
X006007Y020340D01*
X005736Y020069D01*
X005736Y016669D01*
X005736Y016731D02*
X019166Y016731D01*
X019166Y016633D02*
X016638Y016633D01*
X016722Y016534D02*
X019189Y016534D01*
X019207Y016830D02*
X005736Y016830D01*
X005736Y016928D02*
X019289Y016928D01*
X019516Y016660D02*
X023616Y016660D01*
X024116Y017160D01*
X024116Y017460D01*
X024446Y017125D02*
X024785Y017125D01*
X024687Y017224D02*
X024544Y017224D01*
X024586Y017322D02*
X024646Y017322D01*
X024646Y017421D02*
X024586Y017421D01*
X024586Y017519D02*
X024646Y017519D01*
X024646Y017618D02*
X024586Y017618D01*
X024523Y017717D02*
X024708Y017717D01*
X024884Y017027D02*
X024347Y017027D01*
X024312Y016928D02*
X024919Y016928D01*
X024921Y016930D02*
X024646Y016654D01*
X024646Y016265D01*
X024921Y015990D01*
X025310Y015990D01*
X025586Y016265D01*
X025586Y016654D01*
X025310Y016930D01*
X024921Y016930D01*
X024821Y016830D02*
X024410Y016830D01*
X024509Y016731D02*
X024722Y016731D01*
X024646Y016633D02*
X024586Y016633D01*
X024586Y016534D02*
X024646Y016534D01*
X024646Y016436D02*
X024586Y016436D01*
X024586Y016337D02*
X024646Y016337D01*
X024672Y016238D02*
X024559Y016238D01*
X024460Y016140D02*
X024771Y016140D01*
X024869Y016041D02*
X024362Y016041D01*
X024116Y016460D02*
X020016Y016460D01*
X019816Y016260D01*
X018916Y016260D01*
X018716Y016060D01*
X019046Y015943D02*
X019171Y015943D01*
X019166Y015844D02*
X018995Y015844D01*
X018872Y015746D02*
X019184Y015746D01*
X019516Y015860D02*
X021716Y015860D01*
X021816Y015760D01*
X026216Y015760D01*
X027116Y014860D01*
X027116Y014460D01*
X027586Y014465D02*
X028466Y014465D01*
X028466Y014563D02*
X027586Y014563D01*
X027578Y014662D02*
X028466Y014662D01*
X028466Y014760D02*
X027480Y014760D01*
X027381Y014859D02*
X028466Y014859D01*
X028466Y014957D02*
X027329Y014957D01*
X027231Y015056D02*
X028466Y015056D01*
X028466Y015154D02*
X027132Y015154D01*
X027034Y015253D02*
X028466Y015253D01*
X028466Y015352D02*
X026935Y015352D01*
X026836Y015450D02*
X028466Y015450D01*
X028466Y015549D02*
X026738Y015549D01*
X026639Y015647D02*
X028466Y015647D01*
X028466Y015746D02*
X026541Y015746D01*
X026442Y015844D02*
X028466Y015844D01*
X028466Y015943D02*
X026344Y015943D01*
X026310Y015990D02*
X026586Y016265D01*
X026586Y016654D01*
X026310Y016930D01*
X025921Y016930D01*
X025646Y016654D01*
X025646Y016265D01*
X025921Y015990D01*
X026310Y015990D01*
X026362Y016041D02*
X026869Y016041D01*
X026921Y015990D02*
X026646Y016265D01*
X026646Y016654D01*
X026921Y016930D01*
X027310Y016930D01*
X027586Y016654D01*
X027586Y016265D01*
X027310Y015990D01*
X026921Y015990D01*
X026771Y016140D02*
X026460Y016140D01*
X026559Y016238D02*
X026672Y016238D01*
X026646Y016337D02*
X026586Y016337D01*
X026586Y016436D02*
X026646Y016436D01*
X026646Y016534D02*
X026586Y016534D01*
X026586Y016633D02*
X026646Y016633D01*
X026722Y016731D02*
X026509Y016731D01*
X026410Y016830D02*
X026821Y016830D01*
X026919Y016928D02*
X026312Y016928D01*
X026347Y017027D02*
X026884Y017027D01*
X026785Y017125D02*
X026446Y017125D01*
X026544Y017224D02*
X026687Y017224D01*
X026646Y017322D02*
X026586Y017322D01*
X026586Y017421D02*
X026646Y017421D01*
X026646Y017519D02*
X026586Y017519D01*
X026586Y017618D02*
X026646Y017618D01*
X026708Y017717D02*
X026523Y017717D01*
X027370Y018209D02*
X019166Y018209D01*
X019166Y018190D02*
X019166Y018329D01*
X019112Y018458D01*
X019014Y018557D01*
X018885Y018610D01*
X018746Y018610D01*
X018676Y018581D01*
X018676Y018626D01*
X018577Y018725D01*
X017924Y018725D01*
X017916Y018717D01*
X017907Y018725D01*
X017255Y018725D01*
X017155Y018626D01*
X017155Y018481D01*
X017085Y018510D01*
X016946Y018510D01*
X016817Y018457D01*
X016719Y018358D01*
X016666Y018229D01*
X016666Y018090D01*
X016719Y017962D01*
X016817Y017863D01*
X016946Y017810D01*
X017085Y017810D01*
X017167Y017844D01*
X017058Y017735D01*
X017058Y017668D01*
X017058Y017486D01*
X017058Y017468D01*
X017058Y017285D01*
X017122Y017221D01*
X017124Y017220D01*
X017187Y017157D01*
X017187Y017156D01*
X017254Y017090D01*
X017387Y017090D01*
X017569Y017090D01*
X017608Y017129D01*
X017647Y017090D01*
X017914Y017090D01*
X018096Y017090D01*
X018102Y017095D01*
X018108Y017090D01*
X018290Y017090D01*
X018332Y017132D01*
X018374Y017090D01*
X018557Y017090D01*
X018686Y017219D01*
X018686Y017352D01*
X018686Y017534D01*
X018686Y017619D01*
X018686Y017801D01*
X018634Y017852D01*
X018676Y017894D01*
X018676Y017939D01*
X018746Y017910D01*
X018885Y017910D01*
X019014Y017963D01*
X019112Y018062D01*
X019166Y018190D01*
X019133Y018111D02*
X023755Y018111D01*
X023657Y018012D02*
X019063Y018012D01*
X018894Y017914D02*
X023558Y017914D01*
X023460Y017815D02*
X018672Y017815D01*
X018676Y017914D02*
X018737Y017914D01*
X018686Y017717D02*
X023396Y017717D01*
X023396Y017618D02*
X018686Y017618D01*
X018686Y017519D02*
X023396Y017519D01*
X023182Y017421D02*
X018686Y017421D01*
X018686Y017322D02*
X023104Y017322D01*
X023066Y017224D02*
X018686Y017224D01*
X018592Y017125D02*
X023066Y017125D01*
X023092Y017027D02*
X005736Y017027D01*
X005736Y017125D02*
X017218Y017125D01*
X017187Y017157D02*
X017187Y017157D01*
X017120Y017224D02*
X005736Y017224D01*
X005736Y017322D02*
X017058Y017322D01*
X017058Y017421D02*
X005736Y017421D01*
X005736Y017519D02*
X017058Y017519D01*
X017058Y017618D02*
X005736Y017618D01*
X005736Y017717D02*
X017058Y017717D01*
X017098Y017815D02*
X017139Y017815D01*
X016933Y017815D02*
X005736Y017815D01*
X005736Y017914D02*
X016767Y017914D01*
X016698Y018012D02*
X005736Y018012D01*
X005736Y018111D02*
X016666Y018111D01*
X016666Y018209D02*
X005736Y018209D01*
X005736Y018308D02*
X016698Y018308D01*
X016767Y018406D02*
X005736Y018406D01*
X005736Y018505D02*
X016934Y018505D01*
X017097Y018505D02*
X017155Y018505D01*
X017155Y018603D02*
X005736Y018603D01*
X005736Y018702D02*
X017232Y018702D01*
X017116Y018260D02*
X017516Y018260D01*
X017581Y018260D01*
X018316Y018260D01*
X018250Y018260D02*
X018216Y018260D01*
X018250Y018260D02*
X018816Y018260D01*
X019065Y018505D02*
X028466Y018505D01*
X028466Y018603D02*
X018901Y018603D01*
X018731Y018603D02*
X018676Y018603D01*
X018600Y018702D02*
X028466Y018702D01*
X028466Y018801D02*
X005736Y018801D01*
X005736Y018899D02*
X028466Y018899D01*
X028466Y018998D02*
X027318Y018998D01*
X027310Y018990D02*
X027586Y019265D01*
X027586Y019654D01*
X027310Y019930D01*
X026921Y019930D01*
X026646Y019654D01*
X026646Y019265D01*
X026921Y018990D01*
X027310Y018990D01*
X027417Y019096D02*
X028466Y019096D01*
X028466Y019195D02*
X027515Y019195D01*
X027586Y019293D02*
X028466Y019293D01*
X028466Y019392D02*
X027586Y019392D01*
X027586Y019490D02*
X028466Y019490D01*
X028466Y019589D02*
X027586Y019589D01*
X027553Y019687D02*
X028466Y019687D01*
X028466Y019786D02*
X027454Y019786D01*
X027356Y019885D02*
X028466Y019885D01*
X028466Y019983D02*
X026836Y019983D01*
X026836Y020051D02*
X026836Y020075D01*
X026921Y019990D01*
X027310Y019990D01*
X027586Y020265D01*
X027586Y020654D01*
X027310Y020930D01*
X026921Y020930D01*
X026836Y020844D01*
X026836Y020851D01*
X026707Y020980D01*
X023636Y024051D01*
X023636Y025185D01*
X023712Y025262D01*
X023766Y025390D01*
X023766Y025529D01*
X023712Y025658D01*
X023614Y025757D01*
X023485Y025810D01*
X023346Y025810D01*
X023217Y025757D01*
X023119Y025658D01*
X023066Y025529D01*
X023066Y025390D01*
X023119Y025262D01*
X023196Y025185D01*
X023196Y024051D01*
X023196Y023869D01*
X025085Y021980D01*
X022791Y021980D01*
X022714Y022057D01*
X022585Y022110D01*
X022446Y022110D01*
X022317Y022057D01*
X022219Y021958D01*
X022166Y021829D01*
X022166Y021690D01*
X022219Y021562D01*
X022317Y021463D01*
X022446Y021410D01*
X022585Y021410D01*
X022714Y021463D01*
X022791Y021540D01*
X025224Y021540D01*
X025878Y020887D01*
X025646Y020654D01*
X025646Y020265D01*
X025921Y019990D01*
X026310Y019990D01*
X026396Y020075D01*
X026396Y020051D01*
X026274Y019930D01*
X025921Y019930D01*
X025646Y019654D01*
X025646Y019265D01*
X025921Y018990D01*
X026310Y018990D01*
X026586Y019265D01*
X026586Y019619D01*
X026836Y019869D01*
X026836Y020051D01*
X026836Y019885D02*
X026876Y019885D01*
X026777Y019786D02*
X026753Y019786D01*
X026679Y019687D02*
X026654Y019687D01*
X026646Y019589D02*
X026586Y019589D01*
X026586Y019490D02*
X026646Y019490D01*
X026646Y019392D02*
X026586Y019392D01*
X026586Y019293D02*
X026646Y019293D01*
X026716Y019195D02*
X026515Y019195D01*
X026417Y019096D02*
X026815Y019096D01*
X026913Y018998D02*
X026318Y018998D01*
X025913Y018998D02*
X025318Y018998D01*
X025310Y018990D02*
X025586Y019265D01*
X025586Y019654D01*
X025310Y019930D01*
X024921Y019930D01*
X024646Y019654D01*
X024646Y019265D01*
X024921Y018990D01*
X025310Y018990D01*
X025417Y019096D02*
X025815Y019096D01*
X025716Y019195D02*
X025515Y019195D01*
X025586Y019293D02*
X025646Y019293D01*
X025646Y019392D02*
X025586Y019392D01*
X025586Y019490D02*
X025646Y019490D01*
X025646Y019589D02*
X025586Y019589D01*
X025553Y019687D02*
X025679Y019687D01*
X025777Y019786D02*
X025454Y019786D01*
X025356Y019885D02*
X025876Y019885D01*
X025829Y020082D02*
X025402Y020082D01*
X025310Y019990D02*
X025586Y020265D01*
X025586Y020654D01*
X025310Y020930D01*
X024921Y020930D01*
X024646Y020654D01*
X024646Y020265D01*
X024921Y019990D01*
X025310Y019990D01*
X025501Y020180D02*
X025731Y020180D01*
X025646Y020279D02*
X025586Y020279D01*
X025586Y020377D02*
X025646Y020377D01*
X025646Y020476D02*
X025586Y020476D01*
X025586Y020574D02*
X025646Y020574D01*
X025664Y020673D02*
X025567Y020673D01*
X025469Y020771D02*
X025763Y020771D01*
X025861Y020870D02*
X025370Y020870D01*
X025599Y021166D02*
X018621Y021166D01*
X018522Y021264D02*
X025500Y021264D01*
X025402Y021363D02*
X018424Y021363D01*
X018325Y021461D02*
X022322Y021461D01*
X022221Y021560D02*
X018227Y021560D01*
X018128Y021658D02*
X022179Y021658D01*
X022166Y021757D02*
X018030Y021757D01*
X017931Y021855D02*
X018504Y021855D01*
X018529Y021830D02*
X018902Y021830D01*
X019166Y022093D01*
X019166Y023026D01*
X018902Y023290D01*
X018529Y023290D01*
X018266Y023026D01*
X018266Y022093D01*
X018529Y021830D01*
X018405Y021954D02*
X017833Y021954D01*
X017734Y022052D02*
X018307Y022052D01*
X018266Y022151D02*
X017635Y022151D01*
X017537Y022250D02*
X018266Y022250D01*
X018266Y022348D02*
X017438Y022348D01*
X017340Y022447D02*
X018266Y022447D01*
X018266Y022545D02*
X017241Y022545D01*
X017143Y022644D02*
X018266Y022644D01*
X018266Y022742D02*
X017044Y022742D01*
X016946Y022841D02*
X018266Y022841D01*
X018266Y022939D02*
X016831Y022939D01*
X016814Y022957D02*
X016891Y022880D01*
X016907Y022880D01*
X019897Y019889D01*
X019946Y019910D01*
X020085Y019910D01*
X020214Y019857D01*
X020312Y019758D01*
X020366Y019629D01*
X020366Y019490D01*
X020312Y019362D01*
X020214Y019263D01*
X020085Y019210D01*
X019946Y019210D01*
X019817Y019263D01*
X019719Y019362D01*
X019666Y019490D01*
X019666Y019499D01*
X016805Y022359D01*
X016685Y022310D01*
X016546Y022310D01*
X016417Y022363D01*
X016319Y022462D01*
X016266Y022590D01*
X016266Y022729D01*
X016319Y022858D01*
X016417Y022957D01*
X016546Y023010D01*
X016685Y023010D01*
X016814Y022957D01*
X016816Y022660D02*
X016616Y022660D01*
X016816Y022660D02*
X019916Y019560D01*
X020016Y019560D01*
X020342Y019687D02*
X023679Y019687D01*
X023646Y019654D02*
X023646Y019265D01*
X023921Y018990D01*
X024310Y018990D01*
X024586Y019265D01*
X024586Y019654D01*
X024310Y019930D01*
X023921Y019930D01*
X023646Y019654D01*
X023646Y019589D02*
X020366Y019589D01*
X020366Y019490D02*
X023646Y019490D01*
X023646Y019392D02*
X020325Y019392D01*
X020244Y019293D02*
X023646Y019293D01*
X023716Y019195D02*
X005736Y019195D01*
X005736Y019293D02*
X019787Y019293D01*
X019706Y019392D02*
X015043Y019392D01*
X015124Y019490D02*
X019666Y019490D01*
X019575Y019589D02*
X015165Y019589D01*
X015166Y019687D02*
X019477Y019687D01*
X019378Y019786D02*
X015142Y019786D01*
X015086Y019885D02*
X019280Y019885D01*
X019181Y019983D02*
X014950Y019983D01*
X014786Y020082D02*
X019083Y020082D01*
X018984Y020180D02*
X014786Y020180D01*
X014786Y020279D02*
X018886Y020279D01*
X018787Y020377D02*
X014786Y020377D01*
X014786Y020476D02*
X018689Y020476D01*
X018590Y020574D02*
X014786Y020574D01*
X014786Y020673D02*
X018491Y020673D01*
X018393Y020771D02*
X014786Y020771D01*
X014786Y020870D02*
X018294Y020870D01*
X018196Y020969D02*
X014786Y020969D01*
X014786Y021067D02*
X018097Y021067D01*
X017999Y021166D02*
X014786Y021166D01*
X014813Y021264D02*
X017900Y021264D01*
X017802Y021363D02*
X015900Y021363D01*
X015986Y021448D02*
X015986Y021448D01*
X015999Y021461D02*
X017703Y021461D01*
X017605Y021560D02*
X016097Y021560D01*
X016186Y021658D02*
X017506Y021658D01*
X017407Y021757D02*
X016186Y021757D01*
X016186Y021855D02*
X017309Y021855D01*
X017210Y021954D02*
X016186Y021954D01*
X016186Y022052D02*
X017112Y022052D01*
X017013Y022151D02*
X016186Y022151D01*
X016186Y022250D02*
X016915Y022250D01*
X016816Y022348D02*
X016778Y022348D01*
X016454Y022348D02*
X016186Y022348D01*
X016186Y022447D02*
X016334Y022447D01*
X016284Y022545D02*
X016186Y022545D01*
X016186Y022644D02*
X016266Y022644D01*
X016271Y022742D02*
X016186Y022742D01*
X016186Y022841D02*
X016312Y022841D01*
X016400Y022939D02*
X016186Y022939D01*
X016186Y023038D02*
X018277Y023038D01*
X018376Y023136D02*
X016186Y023136D01*
X016186Y023235D02*
X018474Y023235D01*
X018957Y023235D02*
X019503Y023235D01*
X019537Y023270D02*
X019286Y023018D01*
X019286Y022600D01*
X019675Y022600D01*
X019675Y022520D01*
X019286Y022520D01*
X019286Y022102D01*
X019537Y021850D01*
X019676Y021850D01*
X019676Y022520D01*
X019756Y022520D01*
X019756Y022600D01*
X020146Y022600D01*
X020146Y023018D01*
X019894Y023270D01*
X019756Y023270D01*
X019756Y022600D01*
X019676Y022600D01*
X019676Y023270D01*
X019537Y023270D01*
X019676Y023235D02*
X019756Y023235D01*
X019756Y023136D02*
X019676Y023136D01*
X019676Y023038D02*
X019756Y023038D01*
X019756Y022939D02*
X019676Y022939D01*
X019676Y022841D02*
X019756Y022841D01*
X019756Y022742D02*
X019676Y022742D01*
X019676Y022644D02*
X019756Y022644D01*
X019756Y022545D02*
X020266Y022545D01*
X020266Y022447D02*
X020146Y022447D01*
X020146Y022520D02*
X019756Y022520D01*
X019756Y021850D01*
X019894Y021850D01*
X020146Y022102D01*
X020146Y022520D01*
X020146Y022644D02*
X020266Y022644D01*
X020266Y022742D02*
X020146Y022742D01*
X020146Y022841D02*
X020266Y022841D01*
X020266Y022939D02*
X020146Y022939D01*
X020126Y023038D02*
X020277Y023038D01*
X020266Y023026D02*
X020266Y022093D01*
X020529Y021830D01*
X020902Y021830D01*
X021166Y022093D01*
X021166Y023026D01*
X020902Y023290D01*
X020529Y023290D01*
X020266Y023026D01*
X020376Y023136D02*
X020027Y023136D01*
X019928Y023235D02*
X020474Y023235D01*
X020957Y023235D02*
X023829Y023235D01*
X023731Y023334D02*
X016186Y023334D01*
X016186Y023432D02*
X023632Y023432D01*
X023534Y023531D02*
X016186Y023531D01*
X016186Y023629D02*
X023435Y023629D01*
X023337Y023728D02*
X016186Y023728D01*
X016186Y023826D02*
X023238Y023826D01*
X023196Y023925D02*
X016186Y023925D01*
X016134Y024023D02*
X023196Y024023D01*
X023196Y024122D02*
X016035Y024122D01*
X015937Y024220D02*
X023196Y024220D01*
X023196Y024319D02*
X015838Y024319D01*
X015740Y024418D02*
X023196Y024418D01*
X023196Y024516D02*
X015641Y024516D01*
X015543Y024615D02*
X023196Y024615D01*
X023196Y024713D02*
X014786Y024713D01*
X014786Y024812D02*
X014927Y024812D01*
X014829Y024910D02*
X014786Y024910D01*
X015304Y024812D02*
X015927Y024812D01*
X015929Y024810D02*
X016302Y024810D01*
X016566Y025073D01*
X016566Y025446D01*
X016302Y025710D01*
X015929Y025710D01*
X015666Y025446D01*
X015666Y025073D01*
X015929Y024810D01*
X015829Y024910D02*
X015402Y024910D01*
X015501Y025009D02*
X015730Y025009D01*
X015666Y025107D02*
X015566Y025107D01*
X015566Y025206D02*
X015666Y025206D01*
X015666Y025304D02*
X015566Y025304D01*
X015566Y025403D02*
X015666Y025403D01*
X015721Y025501D02*
X015510Y025501D01*
X015412Y025600D02*
X015819Y025600D01*
X015918Y025699D02*
X015313Y025699D01*
X015388Y025896D02*
X015843Y025896D01*
X015929Y025810D02*
X016302Y025810D01*
X016566Y026073D01*
X016566Y026446D01*
X016302Y026710D01*
X015929Y026710D01*
X015666Y026446D01*
X015666Y026073D01*
X015929Y025810D01*
X015745Y025994D02*
X015486Y025994D01*
X015566Y026093D02*
X015666Y026093D01*
X015666Y026191D02*
X015566Y026191D01*
X015566Y026290D02*
X015666Y026290D01*
X015666Y026388D02*
X015566Y026388D01*
X015525Y026487D02*
X015706Y026487D01*
X015805Y026585D02*
X015426Y026585D01*
X015328Y026684D02*
X015903Y026684D01*
X016328Y026684D02*
X016932Y026684D01*
X016937Y026690D02*
X016686Y026438D01*
X016686Y026300D01*
X017075Y026300D01*
X017075Y026220D01*
X016686Y026220D01*
X016686Y026082D01*
X016937Y025830D01*
X017076Y025830D01*
X017076Y026220D01*
X017156Y026220D01*
X017156Y026300D01*
X017546Y026300D01*
X017546Y026438D01*
X017294Y026690D01*
X017156Y026690D01*
X017156Y026300D01*
X017076Y026300D01*
X017076Y026690D01*
X016937Y026690D01*
X017076Y026684D02*
X017156Y026684D01*
X017156Y026585D02*
X017076Y026585D01*
X017076Y026487D02*
X017156Y026487D01*
X017156Y026388D02*
X017076Y026388D01*
X017075Y026290D02*
X016566Y026290D01*
X016566Y026388D02*
X016686Y026388D01*
X016735Y026487D02*
X016525Y026487D01*
X016426Y026585D02*
X016833Y026585D01*
X016686Y026191D02*
X016566Y026191D01*
X016566Y026093D02*
X016686Y026093D01*
X016773Y025994D02*
X016486Y025994D01*
X016388Y025896D02*
X016872Y025896D01*
X016929Y025710D02*
X016666Y025446D01*
X016666Y025073D01*
X016929Y024810D01*
X017302Y024810D01*
X017566Y025073D01*
X017566Y025446D01*
X017302Y025710D01*
X016929Y025710D01*
X016918Y025699D02*
X016313Y025699D01*
X016412Y025600D02*
X016819Y025600D01*
X016721Y025501D02*
X016510Y025501D01*
X016566Y025403D02*
X016666Y025403D01*
X016666Y025304D02*
X016566Y025304D01*
X016566Y025206D02*
X016666Y025206D01*
X016666Y025107D02*
X016566Y025107D01*
X016501Y025009D02*
X016730Y025009D01*
X016829Y024910D02*
X016402Y024910D01*
X016304Y024812D02*
X016927Y024812D01*
X017304Y024812D02*
X017927Y024812D01*
X017929Y024810D02*
X018302Y024810D01*
X018566Y025073D01*
X018566Y025446D01*
X018302Y025710D01*
X017929Y025710D01*
X017666Y025446D01*
X017666Y025073D01*
X017929Y024810D01*
X017829Y024910D02*
X017402Y024910D01*
X017501Y025009D02*
X017730Y025009D01*
X017666Y025107D02*
X017566Y025107D01*
X017566Y025206D02*
X017666Y025206D01*
X017666Y025304D02*
X017566Y025304D01*
X017566Y025403D02*
X017666Y025403D01*
X017721Y025501D02*
X017510Y025501D01*
X017412Y025600D02*
X017819Y025600D01*
X017918Y025699D02*
X017313Y025699D01*
X017294Y025830D02*
X017546Y026082D01*
X017546Y026220D01*
X017156Y026220D01*
X017156Y025830D01*
X017294Y025830D01*
X017359Y025896D02*
X017843Y025896D01*
X017929Y025810D02*
X018302Y025810D01*
X018566Y026073D01*
X018566Y026446D01*
X018302Y026710D01*
X017929Y026710D01*
X017666Y026446D01*
X017666Y026073D01*
X017929Y025810D01*
X017745Y025994D02*
X017458Y025994D01*
X017546Y026093D02*
X017666Y026093D01*
X017666Y026191D02*
X017546Y026191D01*
X017666Y026290D02*
X017156Y026290D01*
X017156Y026191D02*
X017076Y026191D01*
X017076Y026093D02*
X017156Y026093D01*
X017156Y025994D02*
X017076Y025994D01*
X017076Y025896D02*
X017156Y025896D01*
X017546Y026388D02*
X017666Y026388D01*
X017706Y026487D02*
X017497Y026487D01*
X017398Y026585D02*
X017805Y026585D01*
X017903Y026684D02*
X017299Y026684D01*
X018328Y026684D02*
X018903Y026684D01*
X018929Y026710D02*
X018666Y026446D01*
X018666Y026073D01*
X018929Y025810D01*
X019302Y025810D01*
X019566Y026073D01*
X019566Y026446D01*
X019302Y026710D01*
X018929Y026710D01*
X018805Y026585D02*
X018426Y026585D01*
X018525Y026487D02*
X018706Y026487D01*
X018666Y026388D02*
X018566Y026388D01*
X018566Y026290D02*
X018666Y026290D01*
X018666Y026191D02*
X018566Y026191D01*
X018566Y026093D02*
X018666Y026093D01*
X018745Y025994D02*
X018486Y025994D01*
X018388Y025896D02*
X018843Y025896D01*
X018929Y025710D02*
X018666Y025446D01*
X018666Y025073D01*
X018929Y024810D01*
X019302Y024810D01*
X019566Y025073D01*
X019566Y025446D01*
X019302Y025710D01*
X018929Y025710D01*
X018918Y025699D02*
X018313Y025699D01*
X018412Y025600D02*
X018819Y025600D01*
X018721Y025501D02*
X018510Y025501D01*
X018566Y025403D02*
X018666Y025403D01*
X018666Y025304D02*
X018566Y025304D01*
X018566Y025206D02*
X018666Y025206D01*
X018666Y025107D02*
X018566Y025107D01*
X018501Y025009D02*
X018730Y025009D01*
X018829Y024910D02*
X018402Y024910D01*
X018304Y024812D02*
X018927Y024812D01*
X019304Y024812D02*
X019927Y024812D01*
X019929Y024810D02*
X020302Y024810D01*
X020566Y025073D01*
X020566Y025446D01*
X020302Y025710D01*
X019929Y025710D01*
X019666Y025446D01*
X019666Y025073D01*
X019929Y024810D01*
X019829Y024910D02*
X019402Y024910D01*
X019501Y025009D02*
X019730Y025009D01*
X019666Y025107D02*
X019566Y025107D01*
X019566Y025206D02*
X019666Y025206D01*
X019666Y025304D02*
X019566Y025304D01*
X019566Y025403D02*
X019666Y025403D01*
X019721Y025501D02*
X019510Y025501D01*
X019412Y025600D02*
X019819Y025600D01*
X019918Y025699D02*
X019313Y025699D01*
X019388Y025896D02*
X019843Y025896D01*
X019929Y025810D02*
X019666Y026073D01*
X019666Y026446D01*
X019929Y026710D01*
X020302Y026710D01*
X020566Y026446D01*
X020566Y026073D01*
X020302Y025810D01*
X019929Y025810D01*
X019745Y025994D02*
X019486Y025994D01*
X019566Y026093D02*
X019666Y026093D01*
X019666Y026191D02*
X019566Y026191D01*
X019566Y026290D02*
X019666Y026290D01*
X019666Y026388D02*
X019566Y026388D01*
X019525Y026487D02*
X019706Y026487D01*
X019805Y026585D02*
X019426Y026585D01*
X019328Y026684D02*
X019903Y026684D01*
X020328Y026684D02*
X020903Y026684D01*
X020805Y026585D02*
X020426Y026585D01*
X020525Y026487D02*
X020706Y026487D01*
X020666Y026388D02*
X020566Y026388D01*
X020566Y026290D02*
X020666Y026290D01*
X020666Y026191D02*
X020566Y026191D01*
X020566Y026093D02*
X020666Y026093D01*
X020745Y025994D02*
X020486Y025994D01*
X020388Y025896D02*
X020843Y025896D01*
X020918Y025699D02*
X020313Y025699D01*
X020412Y025600D02*
X020819Y025600D01*
X020721Y025501D02*
X020510Y025501D01*
X020566Y025403D02*
X020666Y025403D01*
X020666Y025304D02*
X020566Y025304D01*
X020566Y025206D02*
X020666Y025206D01*
X020666Y025107D02*
X020566Y025107D01*
X020501Y025009D02*
X020730Y025009D01*
X020829Y024910D02*
X020402Y024910D01*
X020304Y024812D02*
X020927Y024812D01*
X021304Y024812D02*
X023196Y024812D01*
X023196Y024910D02*
X021402Y024910D01*
X021501Y025009D02*
X023196Y025009D01*
X023196Y025107D02*
X021566Y025107D01*
X021566Y025206D02*
X023175Y025206D01*
X023101Y025304D02*
X021566Y025304D01*
X021640Y025403D02*
X023066Y025403D01*
X023066Y025501D02*
X021739Y025501D01*
X021838Y025600D02*
X023095Y025600D01*
X023159Y025699D02*
X021936Y025699D01*
X022035Y025797D02*
X023315Y025797D01*
X023516Y025797D02*
X023886Y025797D01*
X023886Y025699D02*
X023672Y025699D01*
X023736Y025600D02*
X023886Y025600D01*
X023886Y025501D02*
X023766Y025501D01*
X023766Y025403D02*
X023904Y025403D01*
X023886Y025422D02*
X024137Y025170D01*
X024494Y025170D01*
X024746Y025422D01*
X024746Y026298D01*
X024494Y026550D01*
X024137Y026550D01*
X023886Y026298D01*
X023886Y025422D01*
X024003Y025304D02*
X023730Y025304D01*
X023657Y025206D02*
X024101Y025206D01*
X024530Y025206D02*
X025101Y025206D01*
X025137Y025170D02*
X024886Y025422D01*
X024886Y026298D01*
X025137Y026550D01*
X025494Y026550D01*
X025746Y026298D01*
X025746Y025422D01*
X025494Y025170D01*
X025137Y025170D01*
X025003Y025304D02*
X024628Y025304D01*
X024727Y025403D02*
X024904Y025403D01*
X024886Y025501D02*
X024746Y025501D01*
X024746Y025600D02*
X024886Y025600D01*
X024886Y025699D02*
X024746Y025699D01*
X024746Y025797D02*
X024886Y025797D01*
X024886Y025896D02*
X024746Y025896D01*
X024746Y025994D02*
X024886Y025994D01*
X024886Y026093D02*
X024746Y026093D01*
X024746Y026191D02*
X024886Y026191D01*
X024886Y026290D02*
X024746Y026290D01*
X024655Y026388D02*
X024976Y026388D01*
X025075Y026487D02*
X024557Y026487D01*
X024075Y026487D02*
X022186Y026487D01*
X022186Y026585D02*
X028466Y026585D01*
X028466Y026487D02*
X025557Y026487D01*
X025655Y026388D02*
X026728Y026388D01*
X026749Y026410D02*
X026486Y026146D01*
X026486Y025773D01*
X026749Y025510D01*
X027682Y025510D01*
X027946Y025773D01*
X027946Y026146D01*
X027682Y026410D01*
X026749Y026410D01*
X026629Y026290D02*
X025746Y026290D01*
X025746Y026191D02*
X026531Y026191D01*
X026486Y026093D02*
X025746Y026093D01*
X025746Y025994D02*
X026486Y025994D01*
X026486Y025896D02*
X025746Y025896D01*
X025746Y025797D02*
X026486Y025797D01*
X026560Y025699D02*
X025746Y025699D01*
X025746Y025600D02*
X026659Y025600D01*
X026757Y025390D02*
X026506Y025138D01*
X026506Y025000D01*
X027175Y025000D01*
X027175Y024920D01*
X026506Y024920D01*
X026506Y024782D01*
X026757Y024530D01*
X027176Y024530D01*
X027176Y024920D01*
X027256Y024920D01*
X027256Y025000D01*
X027926Y025000D01*
X027926Y025138D01*
X027674Y025390D01*
X027256Y025390D01*
X027256Y025000D01*
X027176Y025000D01*
X027176Y025390D01*
X026757Y025390D01*
X026672Y025304D02*
X025628Y025304D01*
X025530Y025206D02*
X026574Y025206D01*
X026506Y025107D02*
X023636Y025107D01*
X023636Y025009D02*
X026506Y025009D01*
X026506Y024910D02*
X023636Y024910D01*
X023636Y024812D02*
X026506Y024812D01*
X026574Y024713D02*
X023636Y024713D01*
X023636Y024615D02*
X026673Y024615D01*
X026757Y024390D02*
X026506Y024138D01*
X026506Y024000D01*
X027175Y024000D01*
X027175Y023920D01*
X026506Y023920D01*
X026506Y023782D01*
X026757Y023530D01*
X027176Y023530D01*
X027176Y023920D01*
X027256Y023920D01*
X027256Y024000D01*
X027926Y024000D01*
X027926Y024138D01*
X027674Y024390D01*
X027256Y024390D01*
X027256Y024000D01*
X027176Y024000D01*
X027176Y024390D01*
X026757Y024390D01*
X026687Y024319D02*
X023636Y024319D01*
X023636Y024418D02*
X028466Y024418D01*
X028466Y024516D02*
X023636Y024516D01*
X023636Y024220D02*
X026588Y024220D01*
X026506Y024122D02*
X023636Y024122D01*
X023663Y024023D02*
X026506Y024023D01*
X026506Y023826D02*
X023860Y023826D01*
X023959Y023728D02*
X026560Y023728D01*
X026658Y023629D02*
X024057Y023629D01*
X024156Y023531D02*
X026757Y023531D01*
X027176Y023531D02*
X027256Y023531D01*
X027256Y023530D02*
X027674Y023530D01*
X027926Y023782D01*
X027926Y023920D01*
X027256Y023920D01*
X027256Y023530D01*
X027256Y023629D02*
X027176Y023629D01*
X027176Y023728D02*
X027256Y023728D01*
X027256Y023826D02*
X027176Y023826D01*
X027175Y023925D02*
X023762Y023925D01*
X023416Y023960D02*
X026616Y020760D01*
X026616Y019960D01*
X026116Y019460D01*
X026328Y019983D02*
X019803Y019983D01*
X019705Y020082D02*
X023829Y020082D01*
X023921Y019990D02*
X023646Y020265D01*
X023646Y020654D01*
X023921Y020930D01*
X024310Y020930D01*
X024586Y020654D01*
X024586Y020265D01*
X024310Y019990D01*
X023921Y019990D01*
X023876Y019885D02*
X020146Y019885D01*
X020284Y019786D02*
X023777Y019786D01*
X024356Y019885D02*
X024876Y019885D01*
X024777Y019786D02*
X024454Y019786D01*
X024553Y019687D02*
X024679Y019687D01*
X024646Y019589D02*
X024586Y019589D01*
X024586Y019490D02*
X024646Y019490D01*
X024646Y019392D02*
X024586Y019392D01*
X024586Y019293D02*
X024646Y019293D01*
X024716Y019195D02*
X024515Y019195D01*
X024417Y019096D02*
X024815Y019096D01*
X024913Y018998D02*
X024318Y018998D01*
X023913Y018998D02*
X005736Y018998D01*
X005736Y019096D02*
X023815Y019096D01*
X023916Y017960D02*
X027616Y017960D01*
X027861Y018209D02*
X028466Y018209D01*
X028466Y018111D02*
X027932Y018111D01*
X027966Y018012D02*
X028466Y018012D01*
X028466Y017914D02*
X027966Y017914D01*
X027934Y017815D02*
X028466Y017815D01*
X028466Y017717D02*
X027867Y017717D01*
X027705Y017618D02*
X028466Y017618D01*
X028466Y017519D02*
X027586Y017519D01*
X027586Y017421D02*
X028466Y017421D01*
X028466Y017322D02*
X027586Y017322D01*
X027544Y017224D02*
X028466Y017224D01*
X028466Y017125D02*
X027446Y017125D01*
X027347Y017027D02*
X028466Y017027D01*
X028466Y016928D02*
X027312Y016928D01*
X027410Y016830D02*
X028466Y016830D01*
X028466Y016731D02*
X027509Y016731D01*
X027586Y016633D02*
X028466Y016633D01*
X028466Y016534D02*
X027586Y016534D01*
X027586Y016436D02*
X028466Y016436D01*
X028466Y016337D02*
X027586Y016337D01*
X027559Y016238D02*
X028466Y016238D01*
X028466Y016140D02*
X027460Y016140D01*
X027362Y016041D02*
X028466Y016041D01*
X026116Y014860D02*
X026116Y014460D01*
X026116Y014860D02*
X025616Y015360D01*
X021616Y015360D01*
X021516Y015460D01*
X020116Y015460D01*
X019916Y015260D01*
X019916Y014960D01*
X019579Y014859D02*
X017636Y014859D01*
X017636Y014957D02*
X019231Y014957D01*
X019125Y015056D02*
X017636Y015056D01*
X017636Y015154D02*
X019080Y015154D01*
X019620Y014760D02*
X017636Y014760D01*
X017636Y014662D02*
X019721Y014662D01*
X020416Y014160D02*
X020516Y014260D01*
X021016Y014260D01*
X021716Y014960D01*
X021845Y016041D02*
X023869Y016041D01*
X023771Y016140D02*
X020007Y016140D01*
X020105Y016238D02*
X023672Y016238D01*
X023152Y016928D02*
X019742Y016928D01*
X018466Y017310D02*
X018466Y017710D01*
X018265Y017710D01*
X018199Y017643D01*
X018199Y017510D01*
X018265Y017443D01*
X018466Y017443D01*
X018332Y017443D02*
X018199Y017310D01*
X018005Y017310D02*
X017738Y017577D01*
X017738Y017643D01*
X017805Y017710D01*
X017939Y017710D01*
X018005Y017643D01*
X018005Y017310D02*
X017738Y017310D01*
X017545Y017377D02*
X017478Y017310D01*
X017345Y017310D01*
X017278Y017377D01*
X017278Y017443D01*
X017345Y017510D01*
X017411Y017510D01*
X017345Y017510D02*
X017278Y017577D01*
X017278Y017643D01*
X017345Y017710D01*
X017478Y017710D01*
X017545Y017643D01*
X017016Y018160D02*
X017116Y018260D01*
X017605Y017125D02*
X017612Y017125D01*
X018325Y017125D02*
X018339Y017125D01*
X017416Y015660D02*
X016816Y016260D01*
X016816Y015960D02*
X015916Y015960D01*
X015816Y016060D01*
X015716Y016060D01*
X015366Y016041D02*
X013299Y016041D01*
X013386Y015943D02*
X015385Y015943D01*
X015436Y015844D02*
X013386Y015844D01*
X013386Y015746D02*
X015506Y015746D01*
X015414Y015647D02*
X013386Y015647D01*
X013438Y015549D02*
X015374Y015549D01*
X015366Y015450D02*
X013536Y015450D01*
X013635Y015352D02*
X015382Y015352D01*
X015416Y015060D02*
X015316Y014960D01*
X015316Y014860D01*
X015416Y015060D02*
X015816Y015060D01*
X016316Y014560D01*
X016316Y012460D01*
X015716Y011860D01*
X015496Y011867D02*
X015404Y011905D01*
X015227Y011905D01*
X015064Y011837D01*
X015036Y011809D01*
X015036Y011951D01*
X014968Y012018D01*
X014907Y012080D01*
X014902Y012080D01*
X013636Y013256D01*
X013636Y015351D01*
X013416Y015260D02*
X013416Y013160D01*
X014816Y011860D01*
X014816Y010760D01*
X015616Y010660D02*
X015616Y008660D01*
X015316Y008360D01*
X013316Y008360D01*
X012966Y008355D02*
X008155Y008355D01*
X008114Y008454D02*
X012976Y008454D01*
X013016Y008552D02*
X008018Y008552D01*
X008201Y008256D02*
X012717Y008256D01*
X012619Y008158D02*
X008299Y008158D01*
X008398Y008059D02*
X012578Y008059D01*
X012916Y007960D02*
X015816Y007960D01*
X016116Y008260D01*
X016116Y010960D01*
X015216Y010260D02*
X015116Y010360D01*
X014616Y010360D01*
X013916Y011060D01*
X013716Y010960D02*
X013716Y010860D01*
X014716Y009860D01*
X014916Y009860D01*
X015242Y009735D02*
X015396Y009735D01*
X015396Y009833D02*
X015266Y009833D01*
X015338Y009932D02*
X015396Y009932D01*
X015396Y009636D02*
X015187Y009636D01*
X015233Y009537D02*
X015396Y009537D01*
X015396Y009439D02*
X015320Y009439D01*
X015361Y009340D02*
X015396Y009340D01*
X015396Y009242D02*
X015366Y009242D01*
X015346Y009143D02*
X015396Y009143D01*
X015396Y009045D02*
X015295Y009045D01*
X015396Y008946D02*
X015173Y008946D01*
X015396Y008848D02*
X004939Y008848D01*
X004840Y008946D02*
X014858Y008946D01*
X014736Y009045D02*
X004742Y009045D01*
X004643Y009143D02*
X014685Y009143D01*
X014666Y009242D02*
X004545Y009242D01*
X004446Y009340D02*
X014589Y009340D01*
X014477Y009439D02*
X004348Y009439D01*
X004249Y009537D02*
X014364Y009537D01*
X014252Y009636D02*
X013848Y009636D01*
X013985Y009735D02*
X014139Y009735D01*
X014216Y009960D02*
X013026Y011050D01*
X013016Y011060D01*
X012736Y010940D02*
X013716Y009960D01*
X013583Y009636D02*
X006448Y009636D01*
X006385Y009610D02*
X006514Y009663D01*
X006612Y009762D01*
X006666Y009890D01*
X006666Y010029D01*
X006612Y010158D01*
X006536Y010235D01*
X006536Y015069D01*
X007007Y015540D01*
X007171Y015540D01*
X007421Y015290D01*
X008410Y015290D01*
X008686Y015565D01*
X008686Y015954D01*
X008410Y016230D01*
X007421Y016230D01*
X007171Y015980D01*
X006824Y015980D01*
X006696Y015851D01*
X006096Y015251D01*
X006096Y015069D01*
X006096Y010235D01*
X006019Y010158D01*
X005966Y010029D01*
X005966Y009890D01*
X006019Y009762D01*
X006117Y009663D01*
X006246Y009610D01*
X006385Y009610D01*
X006183Y009636D02*
X004150Y009636D01*
X004052Y009735D02*
X006046Y009735D01*
X005989Y009833D02*
X003953Y009833D01*
X003855Y009932D02*
X005966Y009932D01*
X005966Y010030D02*
X003756Y010030D01*
X003658Y010129D02*
X006007Y010129D01*
X006088Y010227D02*
X003559Y010227D01*
X003461Y010326D02*
X006096Y010326D01*
X006096Y010424D02*
X003362Y010424D01*
X003264Y010523D02*
X006096Y010523D01*
X006096Y010621D02*
X003165Y010621D01*
X003066Y010720D02*
X006096Y010720D01*
X006096Y010819D02*
X002968Y010819D01*
X002869Y010917D02*
X006096Y010917D01*
X006096Y011016D02*
X002771Y011016D01*
X002672Y011114D02*
X006096Y011114D01*
X006096Y011213D02*
X002574Y011213D01*
X002536Y011311D02*
X006096Y011311D01*
X006096Y011410D02*
X002536Y011410D01*
X002536Y011508D02*
X006096Y011508D01*
X006096Y011607D02*
X002536Y011607D01*
X002536Y011705D02*
X006096Y011705D01*
X006096Y011804D02*
X002536Y011804D01*
X002536Y011903D02*
X006096Y011903D01*
X006096Y012001D02*
X002536Y012001D01*
X002536Y012100D02*
X006096Y012100D01*
X006096Y012198D02*
X002536Y012198D01*
X002536Y012297D02*
X006096Y012297D01*
X006096Y012395D02*
X002536Y012395D01*
X002536Y012494D02*
X006096Y012494D01*
X006096Y012592D02*
X002536Y012592D01*
X002536Y012691D02*
X006096Y012691D01*
X006096Y012789D02*
X002536Y012789D01*
X002536Y012888D02*
X006096Y012888D01*
X006096Y012986D02*
X002536Y012986D01*
X002536Y013085D02*
X006096Y013085D01*
X006096Y013184D02*
X002536Y013184D01*
X002536Y013282D02*
X006096Y013282D01*
X006096Y013381D02*
X002536Y013381D01*
X002536Y013479D02*
X006096Y013479D01*
X006096Y013578D02*
X002536Y013578D01*
X002536Y013676D02*
X006096Y013676D01*
X006096Y013775D02*
X002536Y013775D01*
X002536Y013873D02*
X006096Y013873D01*
X006096Y013972D02*
X002536Y013972D01*
X002536Y014070D02*
X006096Y014070D01*
X006096Y014169D02*
X002536Y014169D01*
X002536Y014268D02*
X006096Y014268D01*
X006096Y014366D02*
X002536Y014366D01*
X002536Y014465D02*
X003398Y014465D01*
X003434Y014450D02*
X003283Y014512D01*
X003168Y014628D01*
X003106Y014778D01*
X003106Y014941D01*
X003168Y015092D01*
X003283Y015207D01*
X003434Y015270D01*
X003597Y015270D01*
X003748Y015207D01*
X003863Y015092D01*
X003916Y014965D01*
X003968Y015092D01*
X004083Y015207D01*
X004234Y015270D01*
X004397Y015270D01*
X004548Y015207D01*
X004663Y015092D01*
X004726Y014941D01*
X004726Y014778D01*
X004663Y014628D01*
X004548Y014512D01*
X004397Y014450D01*
X004234Y014450D01*
X004083Y014512D01*
X003968Y014628D01*
X003916Y014754D01*
X003863Y014628D01*
X003748Y014512D01*
X003597Y014450D01*
X003434Y014450D01*
X003633Y014465D02*
X004198Y014465D01*
X004032Y014563D02*
X003799Y014563D01*
X003877Y014662D02*
X003954Y014662D01*
X003953Y015056D02*
X003878Y015056D01*
X003801Y015154D02*
X004030Y015154D01*
X004193Y015253D02*
X003638Y015253D01*
X003393Y015253D02*
X002536Y015253D01*
X002536Y015352D02*
X006196Y015352D01*
X006295Y015450D02*
X002536Y015450D01*
X002536Y015549D02*
X003263Y015549D01*
X003246Y015647D02*
X002536Y015647D01*
X002536Y015746D02*
X003246Y015746D01*
X003246Y015844D02*
X002536Y015844D01*
X002536Y015943D02*
X003246Y015943D01*
X003246Y016041D02*
X002536Y016041D01*
X002536Y016140D02*
X003246Y016140D01*
X003246Y016238D02*
X002536Y016238D01*
X002536Y016337D02*
X003246Y016337D01*
X002829Y016436D02*
X002536Y016436D01*
X002536Y016534D02*
X002796Y016534D01*
X002796Y016633D02*
X002536Y016633D01*
X002536Y016731D02*
X002796Y016731D01*
X002796Y016830D02*
X002536Y016830D01*
X002536Y016928D02*
X002796Y016928D01*
X002796Y017027D02*
X002536Y017027D01*
X002536Y017125D02*
X002796Y017125D01*
X002796Y017224D02*
X002536Y017224D01*
X002536Y017322D02*
X002796Y017322D01*
X002796Y017421D02*
X002536Y017421D01*
X002536Y017519D02*
X002796Y017519D01*
X002796Y017618D02*
X002536Y017618D01*
X002536Y017717D02*
X002796Y017717D01*
X002796Y017815D02*
X002536Y017815D01*
X002536Y017914D02*
X002796Y017914D01*
X002796Y018012D02*
X002536Y018012D01*
X002536Y018111D02*
X002796Y018111D01*
X002796Y018209D02*
X002536Y018209D01*
X002536Y018308D02*
X002796Y018308D01*
X002796Y018406D02*
X002536Y018406D01*
X002536Y018505D02*
X002796Y018505D01*
X002796Y018603D02*
X002536Y018603D01*
X002536Y018702D02*
X002796Y018702D01*
X002796Y018801D02*
X002536Y018801D01*
X002536Y018899D02*
X002844Y018899D01*
X002996Y018998D02*
X002536Y018998D01*
X002536Y019096D02*
X002996Y019096D01*
X002996Y019195D02*
X002536Y019195D01*
X002536Y019293D02*
X002996Y019293D01*
X002996Y019392D02*
X002536Y019392D01*
X002536Y019490D02*
X002996Y019490D01*
X002996Y019589D02*
X002536Y019589D01*
X002536Y019687D02*
X002996Y019687D01*
X002996Y019786D02*
X002536Y019786D01*
X002536Y019885D02*
X002996Y019885D01*
X002996Y019983D02*
X002536Y019983D01*
X002536Y020082D02*
X002996Y020082D01*
X002996Y020180D02*
X002536Y020180D01*
X002536Y020279D02*
X002996Y020279D01*
X003069Y020377D02*
X002536Y020377D01*
X002536Y020476D02*
X003361Y020476D01*
X003318Y020574D02*
X002536Y020574D01*
X002536Y020673D02*
X003318Y020673D01*
X003385Y020771D02*
X002536Y020771D01*
X002536Y020870D02*
X003385Y020870D01*
X003452Y020969D02*
X002536Y020969D01*
X002536Y021067D02*
X005128Y021067D01*
X005082Y020969D02*
X004418Y020969D01*
X004486Y020870D02*
X005015Y020870D01*
X004916Y020771D02*
X004486Y020771D01*
X004486Y020673D02*
X004818Y020673D01*
X004719Y020574D02*
X004486Y020574D01*
X004486Y020476D02*
X004620Y020476D01*
X004266Y020410D02*
X004065Y020410D01*
X003999Y020477D01*
X003999Y020743D01*
X004065Y020810D01*
X004266Y020810D01*
X004266Y020410D01*
X003805Y020610D02*
X003538Y020610D01*
X003605Y020410D02*
X003605Y020810D01*
X003805Y020610D01*
X003758Y020969D02*
X003913Y020969D01*
X005239Y021166D02*
X002536Y021166D01*
X002536Y021264D02*
X005566Y021264D01*
X005579Y021363D02*
X002536Y021363D01*
X002536Y021461D02*
X005622Y021461D01*
X005725Y021560D02*
X002536Y021560D01*
X002536Y021658D02*
X008719Y021658D01*
X008666Y021529D01*
X008666Y021505D01*
X008614Y021557D01*
X008485Y021610D01*
X008346Y021610D01*
X008217Y021557D01*
X008119Y021458D01*
X008116Y021450D01*
X008112Y021458D01*
X008014Y021557D01*
X007885Y021610D01*
X007746Y021610D01*
X007617Y021557D01*
X007519Y021458D01*
X007466Y021329D01*
X007466Y021190D01*
X007519Y021062D01*
X007596Y020985D01*
X007596Y020651D01*
X007596Y020602D01*
X007566Y020529D01*
X007566Y020390D01*
X007619Y020262D01*
X007717Y020163D01*
X007846Y020110D01*
X007871Y020110D01*
X007819Y020058D01*
X007766Y019929D01*
X007766Y019790D01*
X007819Y019662D01*
X007917Y019563D01*
X008046Y019510D01*
X008185Y019510D01*
X008314Y019563D01*
X008412Y019662D01*
X008466Y019790D01*
X008466Y019899D01*
X008607Y020040D01*
X011724Y020040D01*
X011907Y020040D01*
X012507Y020640D01*
X012636Y020769D01*
X012636Y020775D01*
X012721Y020690D01*
X013110Y020690D01*
X013386Y020965D01*
X013386Y021354D01*
X013110Y021630D01*
X012721Y021630D01*
X012636Y021544D01*
X012636Y021569D01*
X012636Y021751D01*
X012386Y022001D01*
X012386Y022354D01*
X012110Y022630D01*
X011721Y022630D01*
X011446Y022354D01*
X011446Y021965D01*
X011721Y021690D01*
X012074Y021690D01*
X012196Y021569D01*
X012196Y021544D01*
X012110Y021630D01*
X011721Y021630D01*
X011636Y021544D01*
X011636Y021569D01*
X011636Y021751D01*
X011386Y022001D01*
X011386Y022354D01*
X011110Y022630D01*
X010721Y022630D01*
X010446Y022354D01*
X010446Y021965D01*
X010721Y021690D01*
X011074Y021690D01*
X011196Y021569D01*
X011196Y021544D01*
X011110Y021630D01*
X010721Y021630D01*
X010446Y021354D01*
X010446Y020965D01*
X010531Y020880D01*
X010300Y020880D01*
X010386Y020965D01*
X010386Y021354D01*
X010110Y021630D01*
X009757Y021630D01*
X008836Y022551D01*
X008836Y024985D01*
X008912Y025062D01*
X008966Y025190D01*
X008966Y025329D01*
X008912Y025458D01*
X008814Y025557D01*
X008685Y025610D01*
X008546Y025610D01*
X008417Y025557D01*
X008319Y025458D01*
X008266Y025329D01*
X008266Y025190D01*
X008319Y025062D01*
X008396Y024985D01*
X008396Y022369D01*
X008524Y022240D01*
X008524Y022240D01*
X008955Y021810D01*
X008946Y021810D01*
X008817Y021757D01*
X008719Y021658D01*
X008678Y021560D02*
X008606Y021560D01*
X008818Y021757D02*
X002536Y021757D01*
X002536Y021855D02*
X008909Y021855D01*
X008810Y021954D02*
X002536Y021954D01*
X002536Y022052D02*
X008712Y022052D01*
X008613Y022151D02*
X002536Y022151D01*
X002536Y022250D02*
X008515Y022250D01*
X008416Y022348D02*
X002536Y022348D01*
X002536Y022447D02*
X008396Y022447D01*
X008396Y022545D02*
X002536Y022545D01*
X002536Y022644D02*
X008396Y022644D01*
X008396Y022742D02*
X002536Y022742D01*
X002536Y022841D02*
X008396Y022841D01*
X008396Y022939D02*
X003156Y022939D01*
X003214Y022963D02*
X003085Y022910D01*
X002946Y022910D01*
X002817Y022963D01*
X002719Y023062D01*
X002666Y023190D01*
X002666Y023329D01*
X002719Y023458D01*
X002796Y023535D01*
X002796Y023785D01*
X002719Y023862D01*
X002666Y023990D01*
X002666Y024129D01*
X002719Y024258D01*
X002817Y024357D01*
X002946Y024410D01*
X003085Y024410D01*
X003214Y024357D01*
X003312Y024258D01*
X003366Y024129D01*
X003366Y023990D01*
X003312Y023862D01*
X003236Y023785D01*
X003236Y023535D01*
X003312Y023458D01*
X003366Y023329D01*
X003366Y023190D01*
X003312Y023062D01*
X003214Y022963D01*
X003289Y023038D02*
X008396Y023038D01*
X008396Y023136D02*
X003343Y023136D01*
X003366Y023235D02*
X008396Y023235D01*
X008396Y023334D02*
X003364Y023334D01*
X003323Y023432D02*
X008396Y023432D01*
X008396Y023531D02*
X003240Y023531D01*
X003236Y023629D02*
X008396Y023629D01*
X008396Y023728D02*
X003236Y023728D01*
X003277Y023826D02*
X008396Y023826D01*
X008396Y023925D02*
X003338Y023925D01*
X003366Y024023D02*
X008396Y024023D01*
X008396Y024122D02*
X005114Y024122D01*
X005271Y024220D02*
X008396Y024220D01*
X008396Y024319D02*
X005336Y024319D01*
X005366Y024418D02*
X008396Y024418D01*
X008396Y024516D02*
X005366Y024516D01*
X005330Y024615D02*
X008396Y024615D01*
X008396Y024713D02*
X005280Y024713D01*
X005379Y024812D02*
X008396Y024812D01*
X008396Y024910D02*
X005477Y024910D01*
X005576Y025009D02*
X008372Y025009D01*
X008300Y025107D02*
X005674Y025107D01*
X005773Y025206D02*
X008266Y025206D01*
X008266Y025304D02*
X005871Y025304D01*
X005970Y025403D02*
X008296Y025403D01*
X008362Y025501D02*
X006068Y025501D01*
X006167Y025600D02*
X008522Y025600D01*
X008709Y025600D02*
X014246Y025600D01*
X014246Y025501D02*
X008869Y025501D01*
X008935Y025403D02*
X014246Y025403D01*
X014246Y025304D02*
X008966Y025304D01*
X008966Y025206D02*
X014246Y025206D01*
X014246Y025107D02*
X008931Y025107D01*
X008859Y025009D02*
X014246Y025009D01*
X014246Y024910D02*
X008836Y024910D01*
X008836Y024812D02*
X014246Y024812D01*
X014246Y024713D02*
X008836Y024713D01*
X008836Y024615D02*
X014075Y024615D01*
X014001Y024516D02*
X008836Y024516D01*
X008836Y024418D02*
X013966Y024418D01*
X013966Y024319D02*
X008836Y024319D01*
X008836Y024220D02*
X013994Y024220D01*
X014059Y024122D02*
X008836Y024122D01*
X008836Y024023D02*
X014213Y024023D01*
X014418Y024023D02*
X015370Y024023D01*
X015469Y023925D02*
X008836Y023925D01*
X008836Y023826D02*
X015567Y023826D01*
X015646Y023728D02*
X008836Y023728D01*
X008836Y023629D02*
X015646Y023629D01*
X015646Y023531D02*
X008836Y023531D01*
X008836Y023432D02*
X015646Y023432D01*
X015646Y023334D02*
X008836Y023334D01*
X008836Y023235D02*
X012096Y023235D01*
X012117Y023257D02*
X012019Y023158D01*
X011966Y023029D01*
X011966Y022890D01*
X012019Y022762D01*
X012117Y022663D01*
X012246Y022610D01*
X012385Y022610D01*
X012514Y022663D01*
X012591Y022740D01*
X012624Y022740D01*
X012696Y022669D01*
X012696Y022604D01*
X012446Y022354D01*
X012446Y021965D01*
X012721Y021690D01*
X013110Y021690D01*
X013386Y021965D01*
X013386Y022354D01*
X013136Y022604D01*
X013136Y022669D01*
X013136Y022851D01*
X012807Y023180D01*
X012624Y023180D01*
X012591Y023180D01*
X012514Y023257D01*
X012385Y023310D01*
X012246Y023310D01*
X012117Y023257D01*
X012010Y023136D02*
X008836Y023136D01*
X008836Y023038D02*
X011969Y023038D01*
X011966Y022939D02*
X008836Y022939D01*
X008836Y022841D02*
X011986Y022841D01*
X012038Y022742D02*
X008836Y022742D01*
X008836Y022644D02*
X012164Y022644D01*
X012195Y022545D02*
X012636Y022545D01*
X012696Y022644D02*
X012467Y022644D01*
X012538Y022447D02*
X012293Y022447D01*
X012386Y022348D02*
X012446Y022348D01*
X012446Y022250D02*
X012386Y022250D01*
X012386Y022151D02*
X012446Y022151D01*
X012446Y022052D02*
X012386Y022052D01*
X012433Y021954D02*
X012457Y021954D01*
X012531Y021855D02*
X012555Y021855D01*
X012630Y021757D02*
X012654Y021757D01*
X012636Y021658D02*
X014219Y021658D01*
X014178Y021560D02*
X013180Y021560D01*
X013279Y021461D02*
X014166Y021461D01*
X014177Y021363D02*
X013377Y021363D01*
X013386Y021264D02*
X014218Y021264D01*
X014246Y021166D02*
X013386Y021166D01*
X013386Y021067D02*
X014246Y021067D01*
X014246Y020969D02*
X013386Y020969D01*
X013290Y020870D02*
X014246Y020870D01*
X014246Y020771D02*
X013192Y020771D01*
X012639Y020771D02*
X012636Y020771D01*
X012540Y020673D02*
X014246Y020673D01*
X014246Y020574D02*
X012441Y020574D01*
X012343Y020476D02*
X014246Y020476D01*
X014246Y020377D02*
X012244Y020377D01*
X012146Y020279D02*
X014246Y020279D01*
X014246Y020180D02*
X012047Y020180D01*
X011948Y020082D02*
X014246Y020082D01*
X014246Y019983D02*
X008550Y019983D01*
X008466Y019885D02*
X014246Y019885D01*
X014308Y019786D02*
X008464Y019786D01*
X008423Y019687D02*
X014406Y019687D01*
X014466Y019589D02*
X008340Y019589D01*
X008116Y019860D02*
X008516Y020260D01*
X011816Y020260D01*
X012416Y020860D01*
X012416Y021660D01*
X011916Y022160D01*
X011446Y022151D02*
X011386Y022151D01*
X011386Y022052D02*
X011446Y022052D01*
X011433Y021954D02*
X011457Y021954D01*
X011531Y021855D02*
X011555Y021855D01*
X011630Y021757D02*
X011654Y021757D01*
X011636Y021658D02*
X012106Y021658D01*
X012180Y021560D02*
X012196Y021560D01*
X012636Y021560D02*
X012651Y021560D01*
X013177Y021757D02*
X014318Y021757D01*
X013374Y021954D02*
X015646Y021954D01*
X015646Y022052D02*
X013386Y022052D01*
X013386Y022151D02*
X015646Y022151D01*
X015646Y022250D02*
X013386Y022250D01*
X013386Y022348D02*
X015646Y022348D01*
X015646Y022447D02*
X013293Y022447D01*
X013195Y022545D02*
X015646Y022545D01*
X015646Y022644D02*
X013136Y022644D01*
X013136Y022742D02*
X015646Y022742D01*
X015646Y022841D02*
X013136Y022841D01*
X013047Y022939D02*
X015646Y022939D01*
X015646Y023038D02*
X012949Y023038D01*
X012850Y023136D02*
X015646Y023136D01*
X015646Y023235D02*
X012535Y023235D01*
X012716Y022960D02*
X012316Y022960D01*
X012716Y022960D02*
X012916Y022760D01*
X012916Y022160D01*
X013276Y021855D02*
X015629Y021855D01*
X016616Y021460D02*
X016616Y021260D01*
X018719Y021067D02*
X025697Y021067D01*
X025796Y020969D02*
X018818Y020969D01*
X018917Y020870D02*
X023861Y020870D01*
X023763Y020771D02*
X019015Y020771D01*
X019114Y020673D02*
X023664Y020673D01*
X023646Y020574D02*
X019212Y020574D01*
X019311Y020476D02*
X023646Y020476D01*
X023646Y020377D02*
X019409Y020377D01*
X019508Y020279D02*
X023646Y020279D01*
X023731Y020180D02*
X019606Y020180D01*
X019676Y021855D02*
X019756Y021855D01*
X019756Y021954D02*
X019676Y021954D01*
X019676Y022052D02*
X019756Y022052D01*
X019756Y022151D02*
X019676Y022151D01*
X019676Y022250D02*
X019756Y022250D01*
X019756Y022348D02*
X019676Y022348D01*
X019676Y022447D02*
X019756Y022447D01*
X019675Y022545D02*
X019166Y022545D01*
X019166Y022447D02*
X019286Y022447D01*
X019286Y022348D02*
X019166Y022348D01*
X019166Y022250D02*
X019286Y022250D01*
X019286Y022151D02*
X019166Y022151D01*
X019125Y022052D02*
X019335Y022052D01*
X019433Y021954D02*
X019026Y021954D01*
X018928Y021855D02*
X019532Y021855D01*
X019899Y021855D02*
X020504Y021855D01*
X020405Y021954D02*
X019998Y021954D01*
X020096Y022052D02*
X020307Y022052D01*
X020266Y022151D02*
X020146Y022151D01*
X020146Y022250D02*
X020266Y022250D01*
X020266Y022348D02*
X020146Y022348D01*
X019286Y022644D02*
X019166Y022644D01*
X019166Y022742D02*
X019286Y022742D01*
X019286Y022841D02*
X019166Y022841D01*
X019166Y022939D02*
X019286Y022939D01*
X019306Y023038D02*
X019154Y023038D01*
X019055Y023136D02*
X019404Y023136D01*
X021055Y023136D02*
X023928Y023136D01*
X024026Y023038D02*
X021154Y023038D01*
X021166Y022939D02*
X024125Y022939D01*
X024223Y022841D02*
X021166Y022841D01*
X021166Y022742D02*
X024322Y022742D01*
X024421Y022644D02*
X021166Y022644D01*
X021166Y022545D02*
X024519Y022545D01*
X024618Y022447D02*
X021166Y022447D01*
X021166Y022348D02*
X024716Y022348D01*
X024815Y022250D02*
X021166Y022250D01*
X021166Y022151D02*
X024913Y022151D01*
X025012Y022052D02*
X022718Y022052D01*
X022516Y021760D02*
X025316Y021760D01*
X026116Y020960D01*
X026116Y020460D01*
X026718Y020969D02*
X028466Y020969D01*
X028466Y021067D02*
X026619Y021067D01*
X026521Y021166D02*
X028466Y021166D01*
X028466Y021264D02*
X026422Y021264D01*
X026324Y021363D02*
X028466Y021363D01*
X028466Y021461D02*
X026225Y021461D01*
X026127Y021560D02*
X028466Y021560D01*
X028466Y021658D02*
X026028Y021658D01*
X025930Y021757D02*
X028466Y021757D01*
X028466Y021855D02*
X025831Y021855D01*
X025733Y021954D02*
X028466Y021954D01*
X028466Y022052D02*
X025634Y022052D01*
X025535Y022151D02*
X028466Y022151D01*
X028466Y022250D02*
X025437Y022250D01*
X025338Y022348D02*
X028466Y022348D01*
X028466Y022447D02*
X025240Y022447D01*
X025141Y022545D02*
X028466Y022545D01*
X028466Y022644D02*
X025043Y022644D01*
X024944Y022742D02*
X028466Y022742D01*
X028466Y022841D02*
X024846Y022841D01*
X024747Y022939D02*
X028466Y022939D01*
X028466Y023038D02*
X024649Y023038D01*
X024550Y023136D02*
X028466Y023136D01*
X028466Y023235D02*
X024451Y023235D01*
X024353Y023334D02*
X028466Y023334D01*
X028466Y023432D02*
X024254Y023432D01*
X023416Y023960D02*
X023416Y025460D01*
X023886Y025896D02*
X022133Y025896D01*
X022186Y025994D02*
X023886Y025994D01*
X023886Y026093D02*
X022186Y026093D01*
X022186Y026191D02*
X023886Y026191D01*
X023886Y026290D02*
X022186Y026290D01*
X022186Y026388D02*
X023976Y026388D01*
X025746Y025501D02*
X028466Y025501D01*
X028466Y025403D02*
X025727Y025403D01*
X027176Y025304D02*
X027256Y025304D01*
X027256Y025206D02*
X027176Y025206D01*
X027176Y025107D02*
X027256Y025107D01*
X027256Y025009D02*
X027176Y025009D01*
X027176Y024910D02*
X027256Y024910D01*
X027256Y024920D02*
X027256Y024530D01*
X027674Y024530D01*
X027926Y024782D01*
X027926Y024920D01*
X027256Y024920D01*
X027256Y024812D02*
X027176Y024812D01*
X027176Y024713D02*
X027256Y024713D01*
X027256Y024615D02*
X027176Y024615D01*
X027176Y024319D02*
X027256Y024319D01*
X027256Y024220D02*
X027176Y024220D01*
X027176Y024122D02*
X027256Y024122D01*
X027256Y024023D02*
X027176Y024023D01*
X027256Y023925D02*
X028466Y023925D01*
X028466Y024023D02*
X027926Y024023D01*
X027926Y024122D02*
X028466Y024122D01*
X028466Y024220D02*
X027843Y024220D01*
X027744Y024319D02*
X028466Y024319D01*
X028466Y024615D02*
X027758Y024615D01*
X027857Y024713D02*
X028466Y024713D01*
X028466Y024812D02*
X027926Y024812D01*
X027926Y024910D02*
X028466Y024910D01*
X028466Y025009D02*
X027926Y025009D01*
X027926Y025107D02*
X028466Y025107D01*
X028466Y025206D02*
X027858Y025206D01*
X027759Y025304D02*
X028466Y025304D01*
X028466Y025600D02*
X027772Y025600D01*
X027871Y025699D02*
X028466Y025699D01*
X028466Y025797D02*
X027946Y025797D01*
X027946Y025896D02*
X028466Y025896D01*
X028466Y025994D02*
X027946Y025994D01*
X027946Y026093D02*
X028466Y026093D01*
X028466Y026191D02*
X027900Y026191D01*
X027802Y026290D02*
X028466Y026290D01*
X028466Y026388D02*
X027703Y026388D01*
X028466Y026684D02*
X022186Y026684D01*
X022175Y026783D02*
X028466Y026783D01*
X028466Y026881D02*
X022076Y026881D01*
X021978Y026980D02*
X028466Y026980D01*
X028466Y027078D02*
X021879Y027078D01*
X021780Y027177D02*
X028466Y027177D01*
X028466Y027275D02*
X021682Y027275D01*
X021411Y026783D02*
X014451Y026783D01*
X014586Y026684D02*
X014903Y026684D01*
X014805Y026585D02*
X014642Y026585D01*
X014670Y026487D02*
X014706Y026487D01*
X014316Y026460D02*
X014016Y026760D01*
X007016Y026760D01*
X006816Y026560D01*
X005016Y024760D01*
X005016Y024460D01*
X004774Y024713D02*
X001936Y024713D01*
X001936Y024615D02*
X004701Y024615D01*
X004666Y024516D02*
X001936Y024516D01*
X001936Y024418D02*
X004666Y024418D01*
X004695Y024319D02*
X003251Y024319D01*
X003328Y024220D02*
X004760Y024220D01*
X004917Y024122D02*
X003366Y024122D01*
X003016Y024060D02*
X003016Y023260D01*
X002875Y022939D02*
X002536Y022939D01*
X002536Y023038D02*
X002743Y023038D01*
X002688Y023136D02*
X002536Y023136D01*
X002536Y023235D02*
X002666Y023235D01*
X002667Y023334D02*
X002536Y023334D01*
X002583Y023432D02*
X002708Y023432D01*
X002641Y023531D02*
X002791Y023531D01*
X002796Y023629D02*
X002666Y023629D01*
X002666Y023728D02*
X002796Y023728D01*
X002754Y023826D02*
X002625Y023826D01*
X002693Y023925D02*
X002546Y023925D01*
X002666Y024023D02*
X001936Y024023D01*
X001936Y023925D02*
X002086Y023925D01*
X002006Y023826D02*
X001936Y023826D01*
X001936Y023728D02*
X001966Y023728D01*
X001966Y023629D02*
X001936Y023629D01*
X001936Y023531D02*
X001990Y023531D01*
X001936Y023432D02*
X002048Y023432D01*
X002096Y023334D02*
X001936Y023334D01*
X001936Y023235D02*
X002096Y023235D01*
X002096Y023136D02*
X001936Y023136D01*
X001936Y023038D02*
X002096Y023038D01*
X002096Y022939D02*
X001936Y022939D01*
X001936Y022841D02*
X002096Y022841D01*
X002096Y022742D02*
X001936Y022742D01*
X001936Y022644D02*
X002096Y022644D01*
X002096Y022545D02*
X001936Y022545D01*
X001936Y022447D02*
X002096Y022447D01*
X002096Y022348D02*
X001936Y022348D01*
X001936Y022250D02*
X002096Y022250D01*
X002096Y022151D02*
X001936Y022151D01*
X001936Y022052D02*
X002096Y022052D01*
X002096Y021954D02*
X001936Y021954D01*
X001936Y021855D02*
X002096Y021855D01*
X002096Y021757D02*
X001936Y021757D01*
X001936Y021658D02*
X002096Y021658D01*
X002096Y021560D02*
X001936Y021560D01*
X001936Y021461D02*
X002096Y021461D01*
X002096Y021363D02*
X001936Y021363D01*
X001936Y021264D02*
X002096Y021264D01*
X002096Y021166D02*
X001936Y021166D01*
X001936Y021067D02*
X002096Y021067D01*
X002096Y020969D02*
X001936Y020969D01*
X001936Y020870D02*
X002096Y020870D01*
X002096Y020771D02*
X001936Y020771D01*
X001936Y020673D02*
X002096Y020673D01*
X002096Y020574D02*
X001936Y020574D01*
X001936Y020476D02*
X002096Y020476D01*
X002096Y020377D02*
X001936Y020377D01*
X001936Y020279D02*
X002096Y020279D01*
X002096Y020180D02*
X001936Y020180D01*
X001936Y020082D02*
X002096Y020082D01*
X002096Y019983D02*
X001936Y019983D01*
X001936Y019885D02*
X002096Y019885D01*
X002096Y019786D02*
X001936Y019786D01*
X001936Y019687D02*
X002096Y019687D01*
X002096Y019589D02*
X001936Y019589D01*
X001936Y019490D02*
X002096Y019490D01*
X002096Y019392D02*
X001936Y019392D01*
X001936Y019293D02*
X002096Y019293D01*
X002096Y019195D02*
X001936Y019195D01*
X001936Y019096D02*
X002096Y019096D01*
X002096Y018998D02*
X001936Y018998D01*
X001936Y018899D02*
X002096Y018899D01*
X002096Y018801D02*
X001936Y018801D01*
X001936Y018702D02*
X002096Y018702D01*
X002096Y018603D02*
X001936Y018603D01*
X001936Y018505D02*
X002096Y018505D01*
X002096Y018406D02*
X001936Y018406D01*
X001936Y018308D02*
X002096Y018308D01*
X002096Y018209D02*
X001936Y018209D01*
X001936Y018111D02*
X002096Y018111D01*
X002096Y018012D02*
X001936Y018012D01*
X001936Y017914D02*
X002096Y017914D01*
X002096Y017815D02*
X001936Y017815D01*
X001936Y017717D02*
X002096Y017717D01*
X002096Y017618D02*
X001936Y017618D01*
X001936Y017519D02*
X002096Y017519D01*
X002096Y017421D02*
X001936Y017421D01*
X001936Y017322D02*
X002096Y017322D01*
X002096Y017224D02*
X001936Y017224D01*
X001936Y017125D02*
X002096Y017125D01*
X002096Y017027D02*
X001936Y017027D01*
X001936Y016928D02*
X002096Y016928D01*
X002096Y016830D02*
X001936Y016830D01*
X001936Y016731D02*
X002096Y016731D01*
X002096Y016633D02*
X001936Y016633D01*
X001936Y016534D02*
X002096Y016534D01*
X002096Y016436D02*
X001936Y016436D01*
X001936Y016337D02*
X002096Y016337D01*
X002096Y016238D02*
X001936Y016238D01*
X001936Y016140D02*
X002096Y016140D01*
X002096Y016041D02*
X001936Y016041D01*
X001936Y015943D02*
X002096Y015943D01*
X002096Y015844D02*
X001936Y015844D01*
X001936Y015746D02*
X002096Y015746D01*
X002096Y015647D02*
X001936Y015647D01*
X001936Y015549D02*
X002096Y015549D01*
X002096Y015450D02*
X001936Y015450D01*
X001936Y015352D02*
X002096Y015352D01*
X002096Y015253D02*
X001936Y015253D01*
X001936Y015154D02*
X002096Y015154D01*
X002096Y015056D02*
X001936Y015056D01*
X001936Y014957D02*
X002096Y014957D01*
X002096Y014859D02*
X001936Y014859D01*
X001936Y014760D02*
X002096Y014760D01*
X002096Y014662D02*
X001936Y014662D01*
X001936Y014563D02*
X002096Y014563D01*
X002096Y014465D02*
X001936Y014465D01*
X001936Y014366D02*
X002096Y014366D01*
X002096Y014268D02*
X001936Y014268D01*
X001936Y014169D02*
X002096Y014169D01*
X002096Y014070D02*
X001936Y014070D01*
X001936Y013972D02*
X002096Y013972D01*
X002096Y013873D02*
X001936Y013873D01*
X001936Y013775D02*
X002096Y013775D01*
X002096Y013676D02*
X001936Y013676D01*
X001936Y013578D02*
X002096Y013578D01*
X002096Y013479D02*
X001936Y013479D01*
X001936Y013381D02*
X002096Y013381D01*
X002096Y013282D02*
X001936Y013282D01*
X001936Y013184D02*
X002096Y013184D01*
X002096Y013085D02*
X001936Y013085D01*
X001936Y012986D02*
X002096Y012986D01*
X002096Y012888D02*
X001936Y012888D01*
X001936Y012789D02*
X002096Y012789D01*
X002096Y012691D02*
X001936Y012691D01*
X001936Y012592D02*
X002096Y012592D01*
X002096Y012494D02*
X001936Y012494D01*
X001936Y012395D02*
X002096Y012395D01*
X002096Y012297D02*
X001936Y012297D01*
X001936Y012198D02*
X002096Y012198D01*
X002096Y012100D02*
X001936Y012100D01*
X001936Y012001D02*
X002096Y012001D01*
X002096Y011903D02*
X001936Y011903D01*
X001936Y011804D02*
X002096Y011804D01*
X002096Y011705D02*
X001936Y011705D01*
X001936Y011607D02*
X002096Y011607D01*
X002096Y011508D02*
X001936Y011508D01*
X001936Y011410D02*
X002096Y011410D01*
X002096Y011311D02*
X001936Y011311D01*
X001936Y011213D02*
X002096Y011213D01*
X002096Y011114D02*
X001936Y011114D01*
X001936Y011016D02*
X002149Y011016D01*
X002247Y010917D02*
X001936Y010917D01*
X001936Y010819D02*
X002346Y010819D01*
X002444Y010720D02*
X001936Y010720D01*
X001936Y010621D02*
X002543Y010621D01*
X002641Y010523D02*
X001936Y010523D01*
X001936Y010424D02*
X002740Y010424D01*
X002838Y010326D02*
X001968Y010326D01*
X002075Y010227D02*
X002937Y010227D01*
X003036Y010129D02*
X002182Y010129D01*
X002289Y010030D02*
X003134Y010030D01*
X003233Y009932D02*
X002395Y009932D01*
X002502Y009833D02*
X003331Y009833D01*
X003430Y009735D02*
X002609Y009735D01*
X002716Y009636D02*
X003528Y009636D01*
X003627Y009537D02*
X002822Y009537D01*
X002929Y009439D02*
X003725Y009439D01*
X003824Y009340D02*
X003036Y009340D01*
X003145Y009242D02*
X003922Y009242D01*
X004021Y009143D02*
X003236Y009143D01*
X003236Y009045D02*
X004120Y009045D01*
X004218Y008946D02*
X003236Y008946D01*
X003236Y008848D02*
X004317Y008848D01*
X004415Y008749D02*
X003236Y008749D01*
X003236Y008651D02*
X004514Y008651D01*
X004612Y008552D02*
X003236Y008552D01*
X003236Y008454D02*
X004711Y008454D01*
X004809Y008355D02*
X003236Y008355D01*
X003236Y008256D02*
X004908Y008256D01*
X005006Y008158D02*
X003236Y008158D01*
X003236Y008059D02*
X005105Y008059D01*
X005204Y007961D02*
X003236Y007961D01*
X003236Y007862D02*
X005302Y007862D01*
X005401Y007764D02*
X003236Y007764D01*
X003236Y007665D02*
X005499Y007665D01*
X005598Y007567D02*
X003236Y007567D01*
X003302Y007468D02*
X005696Y007468D01*
X005795Y007370D02*
X003349Y007370D01*
X003366Y007271D02*
X005893Y007271D01*
X005992Y007172D02*
X003358Y007172D01*
X003016Y007260D02*
X003016Y006860D01*
X003616Y006260D01*
X003616Y004360D01*
X006736Y004216D02*
X023016Y004216D01*
X023016Y004118D02*
X006736Y004118D01*
X006736Y004019D02*
X023016Y004019D01*
X023016Y003921D02*
X006736Y003921D01*
X006736Y003822D02*
X023016Y003822D01*
X023016Y003723D02*
X006736Y003723D01*
X006736Y003625D02*
X023016Y003625D01*
X023016Y003526D02*
X006736Y003526D01*
X006736Y003428D02*
X023016Y003428D01*
X023016Y003329D02*
X006736Y003329D01*
X006736Y003231D02*
X023016Y003231D01*
X023016Y003132D02*
X006736Y003132D01*
X006736Y003034D02*
X023016Y003034D01*
X023016Y002935D02*
X006736Y002935D01*
X006736Y002837D02*
X008063Y002837D01*
X008064Y002837D02*
X007938Y002712D01*
X007871Y002548D01*
X007871Y002371D01*
X007938Y002208D01*
X008064Y002083D01*
X008227Y002015D01*
X008404Y002015D01*
X008568Y002083D01*
X008693Y002208D01*
X008761Y002371D01*
X008761Y002548D01*
X008693Y002712D01*
X008568Y002837D01*
X008404Y002905D01*
X008227Y002905D01*
X008064Y002837D01*
X007964Y002738D02*
X006736Y002738D01*
X006736Y002639D02*
X007908Y002639D01*
X007871Y002541D02*
X006736Y002541D01*
X006744Y002442D02*
X007871Y002442D01*
X007882Y002344D02*
X006843Y002344D01*
X006941Y002245D02*
X007923Y002245D01*
X007999Y002147D02*
X007040Y002147D01*
X007138Y002048D02*
X008147Y002048D01*
X008485Y002048D02*
X009147Y002048D01*
X009227Y002015D02*
X009064Y002083D01*
X008938Y002208D01*
X008871Y002371D01*
X008871Y002548D01*
X008938Y002712D01*
X009064Y002837D01*
X009227Y002905D01*
X009404Y002905D01*
X009568Y002837D01*
X009693Y002712D01*
X009761Y002548D01*
X009761Y002371D01*
X009693Y002208D01*
X009568Y002083D01*
X009404Y002015D01*
X009227Y002015D01*
X009485Y002048D02*
X010147Y002048D01*
X010227Y002015D02*
X010064Y002083D01*
X009938Y002208D01*
X009871Y002371D01*
X009871Y002548D01*
X009938Y002712D01*
X010064Y002837D01*
X010227Y002905D01*
X010404Y002905D01*
X010568Y002837D01*
X010693Y002712D01*
X010761Y002548D01*
X010761Y002371D01*
X010693Y002208D01*
X010568Y002083D01*
X010404Y002015D01*
X010227Y002015D01*
X010485Y002048D02*
X011147Y002048D01*
X011227Y002015D02*
X011064Y002083D01*
X010938Y002208D01*
X010871Y002371D01*
X010871Y002548D01*
X010938Y002712D01*
X011064Y002837D01*
X011227Y002905D01*
X011404Y002905D01*
X011568Y002837D01*
X011693Y002712D01*
X011761Y002548D01*
X011761Y002371D01*
X011693Y002208D01*
X011568Y002083D01*
X011404Y002015D01*
X011227Y002015D01*
X011485Y002048D02*
X012147Y002048D01*
X012227Y002015D02*
X012064Y002083D01*
X011938Y002208D01*
X011871Y002371D01*
X011871Y002548D01*
X011938Y002712D01*
X012064Y002837D01*
X012227Y002905D01*
X012404Y002905D01*
X012568Y002837D01*
X012693Y002712D01*
X012761Y002548D01*
X012761Y002371D01*
X012693Y002208D01*
X012568Y002083D01*
X012404Y002015D01*
X012227Y002015D01*
X012485Y002048D02*
X013147Y002048D01*
X013227Y002015D02*
X013404Y002015D01*
X013568Y002083D01*
X013693Y002208D01*
X013761Y002371D01*
X013761Y002548D01*
X013693Y002712D01*
X013568Y002837D01*
X013404Y002905D01*
X013227Y002905D01*
X013064Y002837D01*
X012938Y002712D01*
X012871Y002548D01*
X012871Y002371D01*
X012938Y002208D01*
X013064Y002083D01*
X013227Y002015D01*
X013485Y002048D02*
X014147Y002048D01*
X014227Y002015D02*
X014404Y002015D01*
X014568Y002083D01*
X014693Y002208D01*
X014761Y002371D01*
X014761Y002548D01*
X014693Y002712D01*
X014568Y002837D01*
X014404Y002905D01*
X014227Y002905D01*
X014064Y002837D01*
X013938Y002712D01*
X013871Y002548D01*
X013871Y002371D01*
X013938Y002208D01*
X014064Y002083D01*
X014227Y002015D01*
X014485Y002048D02*
X015147Y002048D01*
X015227Y002015D02*
X015404Y002015D01*
X015568Y002083D01*
X015693Y002208D01*
X015761Y002371D01*
X015761Y002548D01*
X015693Y002712D01*
X015568Y002837D01*
X015404Y002905D01*
X015227Y002905D01*
X015064Y002837D01*
X014938Y002712D01*
X014871Y002548D01*
X014871Y002371D01*
X014938Y002208D01*
X015064Y002083D01*
X015227Y002015D01*
X015485Y002048D02*
X016147Y002048D01*
X016227Y002015D02*
X016404Y002015D01*
X016568Y002083D01*
X016693Y002208D01*
X016761Y002371D01*
X016761Y002548D01*
X016693Y002712D01*
X016568Y002837D01*
X016404Y002905D01*
X016227Y002905D01*
X016064Y002837D01*
X015938Y002712D01*
X015871Y002548D01*
X015871Y002371D01*
X015938Y002208D01*
X016064Y002083D01*
X016227Y002015D01*
X016485Y002048D02*
X017147Y002048D01*
X017227Y002015D02*
X017404Y002015D01*
X017568Y002083D01*
X017693Y002208D01*
X017761Y002371D01*
X017761Y002548D01*
X017693Y002712D01*
X017568Y002837D01*
X017404Y002905D01*
X017227Y002905D01*
X017064Y002837D01*
X016938Y002712D01*
X016871Y002548D01*
X016871Y002371D01*
X016938Y002208D01*
X017064Y002083D01*
X017227Y002015D01*
X017485Y002048D02*
X018147Y002048D01*
X018227Y002015D02*
X018404Y002015D01*
X018568Y002083D01*
X018693Y002208D01*
X018761Y002371D01*
X018761Y002548D01*
X018693Y002712D01*
X018568Y002837D01*
X018404Y002905D01*
X018227Y002905D01*
X018064Y002837D01*
X017938Y002712D01*
X017871Y002548D01*
X017871Y002371D01*
X017938Y002208D01*
X018064Y002083D01*
X018227Y002015D01*
X018485Y002048D02*
X019147Y002048D01*
X019227Y002015D02*
X019404Y002015D01*
X019568Y002083D01*
X019693Y002208D01*
X019761Y002371D01*
X019761Y002548D01*
X019693Y002712D01*
X019568Y002837D01*
X019404Y002905D01*
X019227Y002905D01*
X019064Y002837D01*
X018938Y002712D01*
X018871Y002548D01*
X018871Y002371D01*
X018938Y002208D01*
X019064Y002083D01*
X019227Y002015D01*
X019485Y002048D02*
X020147Y002048D01*
X020227Y002015D02*
X020404Y002015D01*
X020568Y002083D01*
X020693Y002208D01*
X020761Y002371D01*
X020761Y002548D01*
X020693Y002712D01*
X020568Y002837D01*
X020404Y002905D01*
X020227Y002905D01*
X020064Y002837D01*
X019938Y002712D01*
X019871Y002548D01*
X019871Y002371D01*
X019938Y002208D01*
X020064Y002083D01*
X020227Y002015D01*
X020485Y002048D02*
X021147Y002048D01*
X021227Y002015D02*
X021404Y002015D01*
X021568Y002083D01*
X021693Y002208D01*
X021761Y002371D01*
X021761Y002548D01*
X021693Y002712D01*
X021568Y002837D01*
X021404Y002905D01*
X021227Y002905D01*
X021064Y002837D01*
X020938Y002712D01*
X020871Y002548D01*
X020871Y002371D01*
X020938Y002208D01*
X021064Y002083D01*
X021227Y002015D01*
X021485Y002048D02*
X022266Y002048D01*
X022273Y002147D02*
X021632Y002147D01*
X021708Y002245D02*
X022314Y002245D01*
X022405Y002344D02*
X021749Y002344D01*
X021761Y002442D02*
X023016Y002442D01*
X023016Y002344D02*
X022827Y002344D01*
X023016Y002541D02*
X021761Y002541D01*
X021723Y002639D02*
X023016Y002639D01*
X023016Y002738D02*
X021667Y002738D01*
X021568Y002837D02*
X023016Y002837D01*
X021063Y002837D02*
X020568Y002837D01*
X020667Y002738D02*
X020964Y002738D01*
X020908Y002639D02*
X020723Y002639D01*
X020761Y002541D02*
X020871Y002541D01*
X020871Y002442D02*
X020761Y002442D01*
X020749Y002344D02*
X020882Y002344D01*
X020923Y002245D02*
X020708Y002245D01*
X020632Y002147D02*
X020999Y002147D01*
X019999Y002147D02*
X019632Y002147D01*
X019708Y002245D02*
X019923Y002245D01*
X019882Y002344D02*
X019749Y002344D01*
X019761Y002442D02*
X019871Y002442D01*
X019871Y002541D02*
X019761Y002541D01*
X019723Y002639D02*
X019908Y002639D01*
X019964Y002738D02*
X019667Y002738D01*
X019568Y002837D02*
X020063Y002837D01*
X019063Y002837D02*
X018568Y002837D01*
X018667Y002738D02*
X018964Y002738D01*
X018908Y002639D02*
X018723Y002639D01*
X018761Y002541D02*
X018871Y002541D01*
X018871Y002442D02*
X018761Y002442D01*
X018749Y002344D02*
X018882Y002344D01*
X018923Y002245D02*
X018708Y002245D01*
X018632Y002147D02*
X018999Y002147D01*
X017999Y002147D02*
X017632Y002147D01*
X017708Y002245D02*
X017923Y002245D01*
X017882Y002344D02*
X017749Y002344D01*
X017761Y002442D02*
X017871Y002442D01*
X017871Y002541D02*
X017761Y002541D01*
X017723Y002639D02*
X017908Y002639D01*
X017964Y002738D02*
X017667Y002738D01*
X017568Y002837D02*
X018063Y002837D01*
X017063Y002837D02*
X016568Y002837D01*
X016667Y002738D02*
X016964Y002738D01*
X016908Y002639D02*
X016723Y002639D01*
X016761Y002541D02*
X016871Y002541D01*
X016871Y002442D02*
X016761Y002442D01*
X016749Y002344D02*
X016882Y002344D01*
X016923Y002245D02*
X016708Y002245D01*
X016632Y002147D02*
X016999Y002147D01*
X015999Y002147D02*
X015632Y002147D01*
X015708Y002245D02*
X015923Y002245D01*
X015882Y002344D02*
X015749Y002344D01*
X015761Y002442D02*
X015871Y002442D01*
X015871Y002541D02*
X015761Y002541D01*
X015723Y002639D02*
X015908Y002639D01*
X015964Y002738D02*
X015667Y002738D01*
X015568Y002837D02*
X016063Y002837D01*
X015063Y002837D02*
X014568Y002837D01*
X014667Y002738D02*
X014964Y002738D01*
X014908Y002639D02*
X014723Y002639D01*
X014761Y002541D02*
X014871Y002541D01*
X014871Y002442D02*
X014761Y002442D01*
X014749Y002344D02*
X014882Y002344D01*
X014923Y002245D02*
X014708Y002245D01*
X014632Y002147D02*
X014999Y002147D01*
X013999Y002147D02*
X013632Y002147D01*
X013708Y002245D02*
X013923Y002245D01*
X013882Y002344D02*
X013749Y002344D01*
X013761Y002442D02*
X013871Y002442D01*
X013871Y002541D02*
X013761Y002541D01*
X013723Y002639D02*
X013908Y002639D01*
X013964Y002738D02*
X013667Y002738D01*
X013568Y002837D02*
X014063Y002837D01*
X013063Y002837D02*
X012568Y002837D01*
X012667Y002738D02*
X012964Y002738D01*
X012908Y002639D02*
X012723Y002639D01*
X012761Y002541D02*
X012871Y002541D01*
X012871Y002442D02*
X012761Y002442D01*
X012749Y002344D02*
X012882Y002344D01*
X012923Y002245D02*
X012708Y002245D01*
X012632Y002147D02*
X012999Y002147D01*
X011999Y002147D02*
X011632Y002147D01*
X011708Y002245D02*
X011923Y002245D01*
X011882Y002344D02*
X011749Y002344D01*
X011761Y002442D02*
X011871Y002442D01*
X011871Y002541D02*
X011761Y002541D01*
X011723Y002639D02*
X011908Y002639D01*
X011964Y002738D02*
X011667Y002738D01*
X011568Y002837D02*
X012063Y002837D01*
X011063Y002837D02*
X010568Y002837D01*
X010667Y002738D02*
X010964Y002738D01*
X010908Y002639D02*
X010723Y002639D01*
X010761Y002541D02*
X010871Y002541D01*
X010871Y002442D02*
X010761Y002442D01*
X010749Y002344D02*
X010882Y002344D01*
X010923Y002245D02*
X010708Y002245D01*
X010632Y002147D02*
X010999Y002147D01*
X009999Y002147D02*
X009632Y002147D01*
X009708Y002245D02*
X009923Y002245D01*
X009882Y002344D02*
X009749Y002344D01*
X009761Y002442D02*
X009871Y002442D01*
X009871Y002541D02*
X009761Y002541D01*
X009723Y002639D02*
X009908Y002639D01*
X009964Y002738D02*
X009667Y002738D01*
X009568Y002837D02*
X010063Y002837D01*
X009063Y002837D02*
X008568Y002837D01*
X008667Y002738D02*
X008964Y002738D01*
X008908Y002639D02*
X008723Y002639D01*
X008761Y002541D02*
X008871Y002541D01*
X008871Y002442D02*
X008761Y002442D01*
X008749Y002344D02*
X008882Y002344D01*
X008923Y002245D02*
X008708Y002245D01*
X008632Y002147D02*
X008999Y002147D01*
X006736Y005596D02*
X023016Y005596D01*
X023016Y005694D02*
X006736Y005694D01*
X006736Y005793D02*
X008251Y005793D01*
X008239Y005891D02*
X006736Y005891D01*
X006736Y005990D02*
X008239Y005990D01*
X008239Y006088D02*
X006736Y006088D01*
X006736Y006187D02*
X008239Y006187D01*
X008239Y006286D02*
X006736Y006286D01*
X006736Y006384D02*
X008239Y006384D01*
X008239Y006483D02*
X006736Y006483D01*
X006736Y006581D02*
X008239Y006581D01*
X008239Y006680D02*
X006736Y006680D01*
X006736Y006778D02*
X008239Y006778D01*
X008239Y006877D02*
X006736Y006877D01*
X006736Y006975D02*
X008239Y006975D01*
X008239Y007074D02*
X006713Y007074D01*
X006614Y007172D02*
X008239Y007172D01*
X008239Y007271D02*
X006516Y007271D01*
X006417Y007370D02*
X008239Y007370D01*
X008226Y007468D02*
X006318Y007468D01*
X006220Y007567D02*
X008127Y007567D01*
X008028Y007665D02*
X006121Y007665D01*
X006023Y007764D02*
X007930Y007764D01*
X007831Y007862D02*
X005924Y007862D01*
X005826Y007961D02*
X007623Y007961D01*
X007521Y008059D02*
X005727Y008059D01*
X005629Y008158D02*
X007479Y008158D01*
X007466Y008256D02*
X005530Y008256D01*
X005432Y008355D02*
X007476Y008355D01*
X007517Y008454D02*
X005333Y008454D01*
X005234Y008552D02*
X007613Y008552D01*
X008416Y007660D02*
X009216Y007660D01*
X006516Y006960D02*
X002316Y011160D01*
X002316Y023660D01*
X002666Y024122D02*
X001936Y024122D01*
X001936Y024220D02*
X002703Y024220D01*
X002780Y024319D02*
X001936Y024319D01*
X001496Y024319D02*
X001386Y024319D01*
X001386Y024418D02*
X001496Y024418D01*
X001496Y024516D02*
X001386Y024516D01*
X001386Y024615D02*
X001496Y024615D01*
X001496Y024713D02*
X001386Y024713D01*
X001386Y024812D02*
X001496Y024812D01*
X001496Y024910D02*
X001386Y024910D01*
X001386Y025009D02*
X001553Y025009D01*
X001652Y025107D02*
X001386Y025107D01*
X001386Y025206D02*
X001751Y025206D01*
X001797Y025304D02*
X001386Y025304D01*
X001386Y025403D02*
X001864Y025403D01*
X002026Y025501D02*
X001386Y025501D01*
X001438Y025600D02*
X005545Y025600D01*
X005643Y025699D02*
X001536Y025699D01*
X001635Y025797D02*
X005742Y025797D01*
X005840Y025896D02*
X001733Y025896D01*
X001832Y025994D02*
X005939Y025994D01*
X006037Y026093D02*
X001930Y026093D01*
X002029Y026191D02*
X006136Y026191D01*
X006235Y026290D02*
X002127Y026290D01*
X002226Y026388D02*
X006333Y026388D01*
X006432Y026487D02*
X002324Y026487D01*
X002423Y026585D02*
X006466Y026585D01*
X006488Y026684D02*
X002522Y026684D01*
X002620Y026783D02*
X006543Y026783D01*
X006758Y026191D02*
X014089Y026191D01*
X014007Y026290D02*
X007041Y026290D01*
X007123Y026388D02*
X013966Y026388D01*
X013966Y026487D02*
X007164Y026487D01*
X006660Y026093D02*
X014246Y026093D01*
X014246Y025994D02*
X006561Y025994D01*
X006462Y025896D02*
X014246Y025896D01*
X014246Y025797D02*
X006364Y025797D01*
X006265Y025699D02*
X014246Y025699D01*
X014786Y025699D02*
X014918Y025699D01*
X014819Y025600D02*
X014786Y025600D01*
X014786Y025797D02*
X021271Y025797D01*
X021566Y026093D02*
X021567Y026093D01*
X021566Y026191D02*
X021646Y026191D01*
X021646Y026290D02*
X021566Y026290D01*
X021566Y026388D02*
X021646Y026388D01*
X021646Y026487D02*
X021525Y026487D01*
X021608Y026585D02*
X021426Y026585D01*
X021510Y026684D02*
X021328Y026684D01*
X014843Y025896D02*
X014786Y025896D01*
X010616Y024160D02*
X010216Y023960D01*
X008616Y025260D02*
X008616Y022460D01*
X009916Y021160D01*
X010386Y021166D02*
X010446Y021166D01*
X010446Y021264D02*
X010386Y021264D01*
X010377Y021363D02*
X010454Y021363D01*
X010552Y021461D02*
X010279Y021461D01*
X010180Y021560D02*
X010651Y021560D01*
X010654Y021757D02*
X010177Y021757D01*
X010110Y021690D02*
X010386Y021965D01*
X010386Y022354D01*
X010110Y022630D01*
X009721Y022630D01*
X009446Y022354D01*
X009446Y021965D01*
X009721Y021690D01*
X010110Y021690D01*
X010276Y021855D02*
X010555Y021855D01*
X010457Y021954D02*
X010374Y021954D01*
X010386Y022052D02*
X010446Y022052D01*
X010446Y022151D02*
X010386Y022151D01*
X010386Y022250D02*
X010446Y022250D01*
X010446Y022348D02*
X010386Y022348D01*
X010293Y022447D02*
X010538Y022447D01*
X010636Y022545D02*
X010195Y022545D01*
X010916Y022160D02*
X011416Y021660D01*
X011416Y020960D01*
X011116Y020660D01*
X009616Y020660D01*
X009016Y021260D01*
X009016Y021460D01*
X008616Y021260D02*
X009416Y020460D01*
X011216Y020460D01*
X011916Y021160D01*
X011651Y021560D02*
X011636Y021560D01*
X011196Y021560D02*
X011180Y021560D01*
X011106Y021658D02*
X009728Y021658D01*
X009654Y021757D02*
X009630Y021757D01*
X009555Y021855D02*
X009531Y021855D01*
X009457Y021954D02*
X009433Y021954D01*
X009446Y022052D02*
X009334Y022052D01*
X009235Y022151D02*
X009446Y022151D01*
X009446Y022250D02*
X009137Y022250D01*
X009038Y022348D02*
X009446Y022348D01*
X009538Y022447D02*
X008940Y022447D01*
X008841Y022545D02*
X009636Y022545D01*
X011195Y022545D02*
X011636Y022545D01*
X011538Y022447D02*
X011293Y022447D01*
X011386Y022348D02*
X011446Y022348D01*
X011446Y022250D02*
X011386Y022250D01*
X010446Y021067D02*
X010386Y021067D01*
X010386Y020969D02*
X010446Y020969D01*
X008616Y021260D02*
X008416Y021260D01*
X008225Y021560D02*
X008006Y021560D01*
X008109Y021461D02*
X008122Y021461D01*
X007816Y021260D02*
X007816Y020560D01*
X007916Y020460D01*
X007566Y020476D02*
X006136Y020476D01*
X006136Y020574D02*
X007584Y020574D01*
X007596Y020673D02*
X006136Y020673D01*
X006136Y020771D02*
X007596Y020771D01*
X007596Y020870D02*
X006136Y020870D01*
X006136Y020969D02*
X007596Y020969D01*
X007517Y021067D02*
X006215Y021067D01*
X006255Y021166D02*
X007476Y021166D01*
X007466Y021264D02*
X006266Y021264D01*
X006252Y021363D02*
X007479Y021363D01*
X007522Y021461D02*
X006209Y021461D01*
X006106Y021560D02*
X007625Y021560D01*
X005916Y021260D02*
X005916Y020560D01*
X005516Y020160D01*
X005516Y016760D01*
X004892Y016136D01*
X003916Y016136D01*
X004586Y015844D02*
X006689Y015844D01*
X006590Y015746D02*
X004586Y015746D01*
X004586Y015647D02*
X006492Y015647D01*
X006393Y015549D02*
X004568Y015549D01*
X004438Y015253D02*
X006098Y015253D01*
X006096Y015154D02*
X004601Y015154D01*
X004678Y015056D02*
X006096Y015056D01*
X006096Y014957D02*
X004719Y014957D01*
X004726Y014859D02*
X006096Y014859D01*
X006096Y014760D02*
X004718Y014760D01*
X004677Y014662D02*
X006096Y014662D01*
X006096Y014563D02*
X004599Y014563D01*
X004433Y014465D02*
X006096Y014465D01*
X006536Y014465D02*
X007246Y014465D01*
X007148Y014563D02*
X006536Y014563D01*
X006536Y014662D02*
X007146Y014662D01*
X007146Y014565D02*
X007421Y014290D01*
X008410Y014290D01*
X008686Y014565D01*
X008686Y014954D01*
X008410Y015230D01*
X007421Y015230D01*
X007146Y014954D01*
X007146Y014565D01*
X007146Y014760D02*
X006536Y014760D01*
X006536Y014859D02*
X007146Y014859D01*
X007148Y014957D02*
X006536Y014957D01*
X006536Y015056D02*
X007247Y015056D01*
X007346Y015154D02*
X006621Y015154D01*
X006720Y015253D02*
X010111Y015253D01*
X010186Y015154D02*
X010196Y015154D01*
X010416Y015260D02*
X009916Y015760D01*
X010386Y015746D02*
X010446Y015746D01*
X010446Y015844D02*
X010386Y015844D01*
X010386Y015943D02*
X010446Y015943D01*
X010532Y016041D02*
X010299Y016041D01*
X010200Y016140D02*
X010631Y016140D01*
X010916Y015760D02*
X011416Y015260D01*
X011416Y014460D01*
X012416Y013460D01*
X012416Y012960D01*
X012716Y012660D01*
X012716Y011860D01*
X012916Y011860D02*
X012916Y012760D01*
X012716Y012960D01*
X012716Y013560D01*
X011916Y014360D01*
X011916Y014760D01*
X012416Y014460D02*
X012416Y015260D01*
X011916Y015760D01*
X012386Y015746D02*
X012446Y015746D01*
X012446Y015844D02*
X012386Y015844D01*
X012386Y015943D02*
X012446Y015943D01*
X012532Y016041D02*
X012299Y016041D01*
X012200Y016140D02*
X012631Y016140D01*
X012916Y015760D02*
X013416Y015260D01*
X013196Y015154D02*
X013186Y015154D01*
X013111Y015253D02*
X012636Y015253D01*
X012635Y015352D02*
X012659Y015352D01*
X012561Y015450D02*
X012536Y015450D01*
X012462Y015549D02*
X012438Y015549D01*
X012446Y015647D02*
X012386Y015647D01*
X012111Y015253D02*
X011636Y015253D01*
X011635Y015352D02*
X011659Y015352D01*
X011561Y015450D02*
X011536Y015450D01*
X011462Y015549D02*
X011438Y015549D01*
X011446Y015647D02*
X011386Y015647D01*
X011386Y015746D02*
X011446Y015746D01*
X011446Y015844D02*
X011386Y015844D01*
X011386Y015943D02*
X011446Y015943D01*
X011532Y016041D02*
X011299Y016041D01*
X011200Y016140D02*
X011631Y016140D01*
X010561Y015450D02*
X010536Y015450D01*
X010462Y015549D02*
X010438Y015549D01*
X010446Y015647D02*
X010386Y015647D01*
X010635Y015352D02*
X010659Y015352D01*
X010636Y015253D02*
X011111Y015253D01*
X011186Y015154D02*
X011196Y015154D01*
X011636Y015154D02*
X011646Y015154D01*
X012186Y015154D02*
X012196Y015154D01*
X012636Y015154D02*
X012646Y015154D01*
X012916Y014760D02*
X013216Y014460D01*
X013216Y013060D01*
X013916Y012360D01*
X013916Y011860D01*
X013716Y011860D02*
X013716Y012260D01*
X013016Y012960D01*
X013016Y013860D01*
X012416Y014460D01*
X011916Y013560D02*
X010916Y014560D01*
X010916Y014760D01*
X010416Y014460D02*
X010416Y015260D01*
X010636Y015154D02*
X010646Y015154D01*
X009916Y014760D02*
X009916Y014360D01*
X011416Y012860D01*
X011416Y012460D01*
X010816Y011860D01*
X010816Y010860D01*
X011216Y010460D01*
X011539Y010326D02*
X011966Y010326D01*
X011940Y010424D02*
X011566Y010424D01*
X011566Y010523D02*
X011841Y010523D01*
X011743Y010621D02*
X011527Y010621D01*
X011450Y010720D02*
X011644Y010720D01*
X011546Y010819D02*
X011168Y010819D01*
X011069Y010917D02*
X011496Y010917D01*
X011496Y011016D02*
X011406Y011016D01*
X011225Y011016D02*
X011036Y011016D01*
X010596Y011016D02*
X010406Y011016D01*
X010225Y011016D02*
X009406Y011016D01*
X009404Y011015D02*
X009568Y011083D01*
X009693Y011208D01*
X009761Y011371D01*
X009761Y011548D01*
X009693Y011712D01*
X009568Y011837D01*
X009404Y011905D01*
X009227Y011905D01*
X009064Y011837D01*
X008938Y011712D01*
X008871Y011548D01*
X008871Y011371D01*
X008938Y011208D01*
X009064Y011083D01*
X009227Y011015D01*
X009404Y011015D01*
X009225Y011016D02*
X006536Y011016D01*
X006536Y011114D02*
X009032Y011114D01*
X008936Y011213D02*
X006536Y011213D01*
X006536Y011311D02*
X008895Y011311D01*
X008871Y011410D02*
X006536Y011410D01*
X006536Y011508D02*
X008871Y011508D01*
X008895Y011607D02*
X006536Y011607D01*
X006536Y011705D02*
X008936Y011705D01*
X009030Y011804D02*
X006536Y011804D01*
X006536Y011903D02*
X009222Y011903D01*
X009410Y011903D02*
X010222Y011903D01*
X010410Y011903D02*
X010596Y011903D01*
X010646Y012001D02*
X006536Y012001D01*
X006536Y012100D02*
X010744Y012100D01*
X010843Y012198D02*
X006536Y012198D01*
X006536Y012297D02*
X010941Y012297D01*
X011040Y012395D02*
X008487Y012395D01*
X008402Y012310D02*
X008666Y012573D01*
X008666Y012710D01*
X007966Y012710D01*
X007966Y012810D01*
X008666Y012810D01*
X008666Y012946D01*
X008402Y013210D01*
X007966Y013210D01*
X007966Y012810D01*
X007866Y012810D01*
X007866Y013210D01*
X007429Y013210D01*
X007166Y012946D01*
X007166Y012810D01*
X007865Y012810D01*
X007865Y012710D01*
X007166Y012710D01*
X007166Y012573D01*
X007429Y012310D01*
X007866Y012310D01*
X007866Y012710D01*
X007966Y012710D01*
X007966Y012310D01*
X008402Y012310D01*
X008586Y012494D02*
X011138Y012494D01*
X011196Y012592D02*
X008666Y012592D01*
X008666Y012691D02*
X011196Y012691D01*
X011175Y012789D02*
X007966Y012789D01*
X007966Y012691D02*
X007866Y012691D01*
X007865Y012789D02*
X006536Y012789D01*
X006536Y012691D02*
X007166Y012691D01*
X007166Y012592D02*
X006536Y012592D01*
X006536Y012494D02*
X007245Y012494D01*
X007344Y012395D02*
X006536Y012395D01*
X006536Y012888D02*
X007166Y012888D01*
X007206Y012986D02*
X006536Y012986D01*
X006536Y013085D02*
X007304Y013085D01*
X007403Y013184D02*
X006536Y013184D01*
X006536Y013282D02*
X010682Y013282D01*
X010584Y013381D02*
X008501Y013381D01*
X008410Y013290D02*
X008686Y013565D01*
X008686Y013954D01*
X008410Y014230D01*
X007421Y014230D01*
X007146Y013954D01*
X007146Y013565D01*
X007421Y013290D01*
X008410Y013290D01*
X008428Y013184D02*
X010781Y013184D01*
X010879Y013085D02*
X008527Y013085D01*
X008625Y012986D02*
X010978Y012986D01*
X011076Y012888D02*
X008666Y012888D01*
X008600Y013479D02*
X010485Y013479D01*
X010387Y013578D02*
X008686Y013578D01*
X008686Y013676D02*
X010288Y013676D01*
X010189Y013775D02*
X008686Y013775D01*
X008686Y013873D02*
X010091Y013873D01*
X009992Y013972D02*
X008668Y013972D01*
X008570Y014070D02*
X009894Y014070D01*
X009795Y014169D02*
X008471Y014169D01*
X008486Y014366D02*
X009645Y014366D01*
X009697Y014268D02*
X006536Y014268D01*
X006536Y014366D02*
X007345Y014366D01*
X007360Y014169D02*
X006536Y014169D01*
X006536Y014070D02*
X007262Y014070D01*
X007163Y013972D02*
X006536Y013972D01*
X006536Y013873D02*
X007146Y013873D01*
X007146Y013775D02*
X006536Y013775D01*
X006536Y013676D02*
X007146Y013676D01*
X007146Y013578D02*
X006536Y013578D01*
X006536Y013479D02*
X007232Y013479D01*
X007330Y013381D02*
X006536Y013381D01*
X007866Y013184D02*
X007966Y013184D01*
X007966Y013085D02*
X007866Y013085D01*
X007866Y012986D02*
X007966Y012986D01*
X007966Y012888D02*
X007866Y012888D01*
X007866Y012592D02*
X007966Y012592D01*
X007966Y012494D02*
X007866Y012494D01*
X007866Y012395D02*
X007966Y012395D01*
X009601Y011804D02*
X010030Y011804D01*
X009936Y011705D02*
X009695Y011705D01*
X009736Y011607D02*
X009895Y011607D01*
X009871Y011508D02*
X009761Y011508D01*
X009761Y011410D02*
X009871Y011410D01*
X009895Y011311D02*
X009736Y011311D01*
X009695Y011213D02*
X009936Y011213D01*
X010032Y011114D02*
X009599Y011114D01*
X010596Y010917D02*
X006536Y010917D01*
X006536Y010819D02*
X010596Y010819D01*
X010644Y010720D02*
X006536Y010720D01*
X006536Y010621D02*
X010743Y010621D01*
X010841Y010523D02*
X006536Y010523D01*
X006536Y010424D02*
X010866Y010424D01*
X010892Y010326D02*
X006536Y010326D01*
X006543Y010227D02*
X010953Y010227D01*
X011100Y010129D02*
X006624Y010129D01*
X006665Y010030D02*
X012197Y010030D01*
X012052Y010129D02*
X011331Y010129D01*
X011478Y010227D02*
X011992Y010227D01*
X012316Y010360D02*
X011716Y010960D01*
X011916Y011060D02*
X012016Y010960D01*
X012216Y010960D01*
X012816Y010360D01*
X012934Y010030D02*
X013334Y010030D01*
X013366Y009932D02*
X006666Y009932D01*
X006642Y009833D02*
X013389Y009833D01*
X013446Y009735D02*
X006585Y009735D01*
X006316Y009960D02*
X006316Y015160D01*
X006916Y015760D01*
X007916Y015760D01*
X008500Y016140D02*
X009631Y016140D01*
X009532Y016041D02*
X008599Y016041D01*
X008686Y015943D02*
X009446Y015943D01*
X009446Y015844D02*
X008686Y015844D01*
X008686Y015746D02*
X009446Y015746D01*
X009446Y015647D02*
X008686Y015647D01*
X008669Y015549D02*
X009462Y015549D01*
X009561Y015450D02*
X008570Y015450D01*
X008472Y015352D02*
X009659Y015352D01*
X009646Y015154D02*
X008486Y015154D01*
X008584Y015056D02*
X009547Y015056D01*
X009448Y014957D02*
X008683Y014957D01*
X008686Y014859D02*
X009446Y014859D01*
X009446Y014760D02*
X008686Y014760D01*
X008686Y014662D02*
X009446Y014662D01*
X009448Y014563D02*
X008684Y014563D01*
X008585Y014465D02*
X009546Y014465D01*
X010416Y014460D02*
X011716Y013160D01*
X011716Y011860D01*
X011916Y011870D02*
X011916Y011860D01*
X011916Y011870D02*
X011916Y013560D01*
X013636Y013578D02*
X016096Y013578D01*
X016096Y013676D02*
X013636Y013676D01*
X013636Y013775D02*
X016096Y013775D01*
X016096Y013873D02*
X013636Y013873D01*
X013636Y013972D02*
X016096Y013972D01*
X016096Y014070D02*
X013636Y014070D01*
X013636Y014169D02*
X016096Y014169D01*
X016096Y014268D02*
X013636Y014268D01*
X013636Y014366D02*
X016096Y014366D01*
X016096Y014465D02*
X013636Y014465D01*
X013636Y014563D02*
X015117Y014563D01*
X015246Y014510D01*
X015385Y014510D01*
X015514Y014563D01*
X016001Y014563D01*
X016096Y014469D02*
X016096Y012551D01*
X015496Y011951D01*
X015496Y011867D01*
X015496Y011903D02*
X015410Y011903D01*
X015546Y012001D02*
X014985Y012001D01*
X014968Y012018D02*
X014968Y012018D01*
X014881Y012100D02*
X015644Y012100D01*
X015743Y012198D02*
X014774Y012198D01*
X014668Y012297D02*
X015841Y012297D01*
X015940Y012395D02*
X014562Y012395D01*
X014456Y012494D02*
X016038Y012494D01*
X016096Y012592D02*
X014350Y012592D01*
X014244Y012691D02*
X016096Y012691D01*
X016096Y012789D02*
X014138Y012789D01*
X014032Y012888D02*
X016096Y012888D01*
X016096Y012986D02*
X013926Y012986D01*
X013819Y013085D02*
X016096Y013085D01*
X016096Y013184D02*
X013713Y013184D01*
X013636Y013282D02*
X016096Y013282D01*
X016096Y013381D02*
X013636Y013381D01*
X013636Y013479D02*
X016096Y013479D01*
X016516Y012360D02*
X015916Y011760D01*
X016716Y012160D02*
X016716Y014760D01*
X016416Y015060D01*
X016416Y015560D01*
X016816Y015960D02*
X017216Y015560D01*
X017216Y012080D01*
X017416Y012260D02*
X017416Y015660D01*
X016816Y015160D02*
X016916Y014960D01*
X016916Y012060D01*
X016516Y012360D02*
X016516Y014660D01*
X015716Y015460D01*
X015724Y014840D02*
X016096Y014469D01*
X015903Y014662D02*
X015612Y014662D01*
X015666Y014790D01*
X015666Y014840D01*
X015724Y014840D01*
X015653Y014760D02*
X015804Y014760D01*
X015612Y014662D02*
X015514Y014563D01*
X015117Y014563D02*
X015019Y014662D01*
X015370Y016140D02*
X013200Y016140D01*
X015411Y016238D02*
X005305Y016238D01*
X005207Y016140D02*
X007331Y016140D01*
X007232Y016041D02*
X005108Y016041D01*
X005010Y015943D02*
X006787Y015943D01*
X006917Y015450D02*
X007261Y015450D01*
X007359Y015352D02*
X006818Y015352D01*
X005404Y016337D02*
X015498Y016337D01*
X019166Y018308D02*
X027541Y018308D01*
X027690Y018308D02*
X028466Y018308D01*
X028466Y018406D02*
X019134Y018406D01*
X022716Y017560D02*
X022916Y017560D01*
X023416Y017160D02*
X023616Y017360D01*
X023616Y017660D01*
X023916Y017960D01*
X025347Y017027D02*
X025884Y017027D01*
X025919Y016928D02*
X025312Y016928D01*
X025410Y016830D02*
X025821Y016830D01*
X025722Y016731D02*
X025509Y016731D01*
X025586Y016633D02*
X025646Y016633D01*
X025646Y016534D02*
X025586Y016534D01*
X025586Y016436D02*
X025646Y016436D01*
X025646Y016337D02*
X025586Y016337D01*
X025559Y016238D02*
X025672Y016238D01*
X025771Y016140D02*
X025460Y016140D01*
X025362Y016041D02*
X025869Y016041D01*
X025785Y017125D02*
X025446Y017125D01*
X025544Y017224D02*
X025687Y017224D01*
X025646Y017322D02*
X025586Y017322D01*
X025586Y017421D02*
X025646Y017421D01*
X025646Y017519D02*
X025586Y017519D01*
X025586Y017618D02*
X025646Y017618D01*
X025708Y017717D02*
X025523Y017717D01*
X024829Y020082D02*
X024402Y020082D01*
X024501Y020180D02*
X024731Y020180D01*
X024646Y020279D02*
X024586Y020279D01*
X024586Y020377D02*
X024646Y020377D01*
X024646Y020476D02*
X024586Y020476D01*
X024586Y020574D02*
X024646Y020574D01*
X024664Y020673D02*
X024567Y020673D01*
X024469Y020771D02*
X024763Y020771D01*
X024861Y020870D02*
X024370Y020870D01*
X025303Y021461D02*
X022709Y021461D01*
X022176Y021855D02*
X020928Y021855D01*
X021026Y021954D02*
X022217Y021954D01*
X022313Y022052D02*
X021125Y022052D01*
X026817Y020870D02*
X026861Y020870D01*
X027370Y020870D02*
X028466Y020870D01*
X028466Y020771D02*
X027469Y020771D01*
X027567Y020673D02*
X028466Y020673D01*
X028466Y020574D02*
X027586Y020574D01*
X027586Y020476D02*
X028466Y020476D01*
X028466Y020377D02*
X027586Y020377D01*
X027586Y020279D02*
X028466Y020279D01*
X028466Y020180D02*
X027501Y020180D01*
X027402Y020082D02*
X028466Y020082D01*
X028466Y023531D02*
X027674Y023531D01*
X027773Y023629D02*
X028466Y023629D01*
X028466Y023728D02*
X027872Y023728D01*
X027926Y023826D02*
X028466Y023826D01*
X014589Y019392D02*
X005736Y019392D01*
X005736Y019490D02*
X014507Y019490D01*
X008816Y019460D02*
X008816Y019260D01*
X007892Y019589D02*
X005736Y019589D01*
X005736Y019687D02*
X007808Y019687D01*
X007767Y019786D02*
X005736Y019786D01*
X005736Y019885D02*
X007766Y019885D01*
X007788Y019983D02*
X005736Y019983D01*
X005748Y020082D02*
X007842Y020082D01*
X007700Y020180D02*
X005847Y020180D01*
X005946Y020279D02*
X007612Y020279D01*
X007571Y020377D02*
X006044Y020377D01*
X005416Y020860D02*
X005316Y020860D01*
X003916Y019460D01*
X003916Y019483D01*
X003916Y019560D01*
X003916Y019483D02*
X004439Y019483D01*
X004016Y019460D02*
X003916Y019460D01*
X001496Y019490D02*
X001386Y019490D01*
X001386Y019392D02*
X001496Y019392D01*
X001496Y019293D02*
X001386Y019293D01*
X001386Y019195D02*
X001496Y019195D01*
X001496Y019096D02*
X001386Y019096D01*
X001386Y018998D02*
X001496Y018998D01*
X001496Y018899D02*
X001386Y018899D01*
X001386Y018801D02*
X001496Y018801D01*
X001496Y018702D02*
X001386Y018702D01*
X001386Y018603D02*
X001496Y018603D01*
X001496Y018505D02*
X001386Y018505D01*
X001386Y018406D02*
X001496Y018406D01*
X001496Y018308D02*
X001386Y018308D01*
X001386Y018209D02*
X001496Y018209D01*
X001496Y018111D02*
X001386Y018111D01*
X001386Y018012D02*
X001496Y018012D01*
X001496Y017914D02*
X001386Y017914D01*
X001386Y017815D02*
X001496Y017815D01*
X001496Y017717D02*
X001386Y017717D01*
X001386Y017618D02*
X001496Y017618D01*
X001496Y017519D02*
X001386Y017519D01*
X001386Y017421D02*
X001496Y017421D01*
X001496Y017322D02*
X001386Y017322D01*
X001386Y017224D02*
X001496Y017224D01*
X001496Y017125D02*
X001386Y017125D01*
X001386Y017027D02*
X001496Y017027D01*
X001496Y016928D02*
X001386Y016928D01*
X001386Y016830D02*
X001496Y016830D01*
X001496Y016731D02*
X001386Y016731D01*
X001386Y016633D02*
X001496Y016633D01*
X001496Y016534D02*
X001386Y016534D01*
X001386Y016436D02*
X001496Y016436D01*
X001496Y016337D02*
X001386Y016337D01*
X001386Y016238D02*
X001496Y016238D01*
X001496Y016140D02*
X001386Y016140D01*
X001386Y016041D02*
X001496Y016041D01*
X001496Y015943D02*
X001386Y015943D01*
X001386Y015844D02*
X001496Y015844D01*
X001496Y015746D02*
X001386Y015746D01*
X001386Y015647D02*
X001496Y015647D01*
X001496Y015549D02*
X001386Y015549D01*
X001386Y015450D02*
X001496Y015450D01*
X001496Y015352D02*
X001386Y015352D01*
X001386Y015253D02*
X001496Y015253D01*
X001496Y015154D02*
X001386Y015154D01*
X001386Y015056D02*
X001496Y015056D01*
X001496Y014957D02*
X001386Y014957D01*
X001386Y014859D02*
X001496Y014859D01*
X001496Y014760D02*
X001386Y014760D01*
X001386Y014662D02*
X001496Y014662D01*
X001496Y014563D02*
X001386Y014563D01*
X001386Y014465D02*
X001496Y014465D01*
X001496Y014366D02*
X001386Y014366D01*
X001386Y014268D02*
X001496Y014268D01*
X001496Y014169D02*
X001386Y014169D01*
X001386Y014070D02*
X001496Y014070D01*
X001496Y013972D02*
X001386Y013972D01*
X001386Y013873D02*
X001496Y013873D01*
X001496Y013775D02*
X001386Y013775D01*
X001386Y013676D02*
X001496Y013676D01*
X001496Y013578D02*
X001386Y013578D01*
X001386Y013479D02*
X001496Y013479D01*
X001496Y013381D02*
X001386Y013381D01*
X001386Y013282D02*
X001496Y013282D01*
X001496Y013184D02*
X001386Y013184D01*
X001386Y013085D02*
X001496Y013085D01*
X001496Y012986D02*
X001386Y012986D01*
X001386Y012888D02*
X001496Y012888D01*
X001496Y012789D02*
X001386Y012789D01*
X001386Y012691D02*
X001496Y012691D01*
X001496Y012592D02*
X001386Y012592D01*
X001386Y012494D02*
X001496Y012494D01*
X001496Y012395D02*
X001386Y012395D01*
X001386Y012297D02*
X001496Y012297D01*
X001496Y012198D02*
X001386Y012198D01*
X001386Y012100D02*
X001496Y012100D01*
X001496Y012001D02*
X001386Y012001D01*
X001386Y011903D02*
X001496Y011903D01*
X001496Y011804D02*
X001386Y011804D01*
X001386Y011705D02*
X001496Y011705D01*
X001496Y011607D02*
X001386Y011607D01*
X001386Y011508D02*
X001496Y011508D01*
X001496Y011410D02*
X001386Y011410D01*
X001386Y011311D02*
X001496Y011311D01*
X001496Y011213D02*
X001386Y011213D01*
X001386Y011114D02*
X001496Y011114D01*
X001496Y011016D02*
X001386Y011016D01*
X001386Y010917D02*
X001496Y010917D01*
X001496Y010819D02*
X001386Y010819D01*
X001386Y010720D02*
X001496Y010720D01*
X001496Y010621D02*
X001386Y010621D01*
X001386Y010523D02*
X001496Y010523D01*
X001496Y010424D02*
X001386Y010424D01*
X001386Y010326D02*
X001496Y010326D01*
X001496Y010227D02*
X001386Y010227D01*
X001428Y010129D02*
X001536Y010129D01*
X001527Y010030D02*
X001640Y010030D01*
X001626Y009932D02*
X001747Y009932D01*
X001724Y009833D02*
X001854Y009833D01*
X001823Y009735D02*
X001960Y009735D01*
X001921Y009636D02*
X002067Y009636D01*
X002020Y009537D02*
X002174Y009537D01*
X002231Y009439D02*
X002281Y009439D01*
X002320Y009340D02*
X002387Y009340D01*
X002360Y009242D02*
X002494Y009242D01*
X002601Y009143D02*
X002366Y009143D01*
X002347Y009045D02*
X002708Y009045D01*
X002796Y008946D02*
X002297Y008946D01*
X002177Y008848D02*
X002796Y008848D01*
X002796Y008749D02*
X000966Y008749D01*
X000966Y008651D02*
X002796Y008651D01*
X002796Y008552D02*
X000966Y008552D01*
X000966Y008454D02*
X002796Y008454D01*
X002796Y008355D02*
X000966Y008355D01*
X000966Y008256D02*
X002796Y008256D01*
X002796Y008158D02*
X000966Y008158D01*
X000966Y008059D02*
X002796Y008059D01*
X002796Y007961D02*
X000966Y007961D01*
X000966Y007862D02*
X002796Y007862D01*
X002796Y007764D02*
X000966Y007764D01*
X000966Y007665D02*
X002796Y007665D01*
X002796Y007567D02*
X000966Y007567D01*
X000966Y007468D02*
X002729Y007468D01*
X002682Y007370D02*
X000966Y007370D01*
X000966Y007271D02*
X002666Y007271D01*
X002673Y007172D02*
X000966Y007172D01*
X003016Y007260D02*
X003016Y009060D01*
X001716Y010260D01*
X001716Y024860D01*
X002016Y025160D01*
X002116Y025160D01*
X002367Y025403D02*
X005348Y025403D01*
X005446Y025501D02*
X002205Y025501D01*
X002435Y025304D02*
X005249Y025304D01*
X005151Y025206D02*
X002466Y025206D01*
X002466Y025107D02*
X005052Y025107D01*
X004953Y025009D02*
X002432Y025009D01*
X002361Y024910D02*
X004855Y024910D01*
X004796Y024812D02*
X002190Y024812D01*
X002041Y024812D02*
X001979Y024812D01*
X001496Y024220D02*
X001386Y024220D01*
X001386Y024122D02*
X001496Y024122D01*
X001496Y024023D02*
X001386Y024023D01*
X001386Y023925D02*
X001496Y023925D01*
X001496Y023826D02*
X001386Y023826D01*
X001386Y023728D02*
X001496Y023728D01*
X001496Y023629D02*
X001386Y023629D01*
X001386Y023531D02*
X001496Y023531D01*
X001496Y023432D02*
X001386Y023432D01*
X001386Y023334D02*
X001496Y023334D01*
X001496Y023235D02*
X001386Y023235D01*
X001386Y023136D02*
X001496Y023136D01*
X001496Y023038D02*
X001386Y023038D01*
X001386Y022939D02*
X001496Y022939D01*
X001496Y022841D02*
X001386Y022841D01*
X001386Y022742D02*
X001496Y022742D01*
X001496Y022644D02*
X001386Y022644D01*
X001386Y022545D02*
X001496Y022545D01*
X001496Y022447D02*
X001386Y022447D01*
X001386Y022348D02*
X001496Y022348D01*
X001496Y022250D02*
X001386Y022250D01*
X001386Y022151D02*
X001496Y022151D01*
X001496Y022052D02*
X001386Y022052D01*
X001386Y021954D02*
X001496Y021954D01*
X001496Y021855D02*
X001386Y021855D01*
X001386Y021757D02*
X001496Y021757D01*
X001496Y021658D02*
X001386Y021658D01*
X001386Y021560D02*
X001496Y021560D01*
X001496Y021461D02*
X001386Y021461D01*
X001386Y021363D02*
X001496Y021363D01*
X001496Y021264D02*
X001386Y021264D01*
X001386Y021166D02*
X001496Y021166D01*
X001496Y021067D02*
X001386Y021067D01*
X001386Y020969D02*
X001496Y020969D01*
X001496Y020870D02*
X001386Y020870D01*
X001386Y020771D02*
X001496Y020771D01*
X001496Y020673D02*
X001386Y020673D01*
X001386Y020574D02*
X001496Y020574D01*
X001496Y020476D02*
X001386Y020476D01*
X001386Y020377D02*
X001496Y020377D01*
X001496Y020279D02*
X001386Y020279D01*
X001386Y020180D02*
X001496Y020180D01*
X001496Y020082D02*
X001386Y020082D01*
X001386Y019983D02*
X001496Y019983D01*
X001496Y019885D02*
X001386Y019885D01*
X001386Y019786D02*
X001496Y019786D01*
X001496Y019687D02*
X001386Y019687D01*
X001386Y019589D02*
X001496Y019589D01*
X006216Y016360D02*
X006516Y016360D01*
X003230Y015154D02*
X002536Y015154D01*
X002536Y015056D02*
X003153Y015056D01*
X003112Y014957D02*
X002536Y014957D01*
X002536Y014859D02*
X003106Y014859D01*
X003113Y014760D02*
X002536Y014760D01*
X002536Y014662D02*
X003154Y014662D01*
X003232Y014563D02*
X002536Y014563D01*
X001059Y009735D02*
X000966Y009735D01*
X000966Y009636D02*
X001158Y009636D01*
X001256Y009537D02*
X000966Y009537D01*
X000966Y009439D02*
X001355Y009439D01*
X001453Y009340D02*
X000966Y009340D01*
X000966Y009242D02*
X001552Y009242D01*
X001650Y009143D02*
X000966Y009143D01*
X000966Y009045D02*
X001684Y009045D01*
X001734Y008946D02*
X000966Y008946D01*
X000966Y008848D02*
X001855Y008848D01*
X003168Y009218D02*
X003168Y009218D01*
X005037Y008749D02*
X015394Y008749D01*
X015295Y008651D02*
X013520Y008651D01*
X013111Y008651D02*
X005136Y008651D01*
X012434Y010030D02*
X012697Y010030D01*
X013079Y010129D02*
X013236Y010129D01*
X014216Y009960D02*
X015016Y009260D01*
X017436Y009143D02*
X028466Y009143D01*
X028466Y009045D02*
X017436Y009045D01*
X017436Y008946D02*
X028466Y008946D01*
X028466Y008848D02*
X017436Y008848D01*
X017436Y008749D02*
X028466Y008749D01*
X028466Y008651D02*
X017436Y008651D01*
X017436Y008552D02*
X028466Y008552D01*
X028466Y008454D02*
X017436Y008454D01*
X017436Y008355D02*
X028466Y008355D01*
X028466Y008256D02*
X017436Y008256D01*
X017436Y008158D02*
X028466Y008158D01*
X025881Y010030D02*
X025351Y010030D01*
X025449Y010129D02*
X025782Y010129D01*
X025683Y010227D02*
X025548Y010227D01*
X025586Y010326D02*
X025646Y010326D01*
X025640Y010424D02*
X025586Y010424D01*
X025916Y010460D02*
X025416Y010960D01*
X020216Y010960D01*
X020116Y011060D01*
X019943Y010621D02*
X019665Y010621D01*
X019736Y010523D02*
X020041Y010523D01*
X020066Y010424D02*
X019736Y010424D01*
X019736Y010326D02*
X020092Y010326D01*
X020153Y010227D02*
X019736Y010227D01*
X019736Y010129D02*
X020300Y010129D01*
X019737Y009833D02*
X021294Y009833D01*
X020884Y011903D02*
X023147Y011903D01*
X023246Y012001D02*
X020785Y012001D01*
X020687Y012100D02*
X023344Y012100D01*
X021816Y012160D02*
X021516Y012160D01*
X024520Y010720D02*
X024711Y010720D01*
X024646Y010621D02*
X024586Y010621D01*
X024586Y010523D02*
X024646Y010523D01*
X024646Y010424D02*
X024586Y010424D01*
X024586Y010326D02*
X024646Y010326D01*
X024683Y010227D02*
X024548Y010227D01*
X024449Y010129D02*
X024782Y010129D01*
X024881Y010030D02*
X024351Y010030D01*
X025916Y010460D02*
X026116Y010460D01*
X025908Y010917D02*
X025769Y010917D01*
X025671Y011016D02*
X025895Y011016D01*
X025797Y011114D02*
X025572Y011114D01*
X025533Y011213D02*
X025698Y011213D01*
X025646Y011311D02*
X025586Y011311D01*
X025586Y011410D02*
X025646Y011410D01*
X025646Y011508D02*
X025586Y011508D01*
X025586Y011607D02*
X025646Y011607D01*
X025659Y011705D02*
X025535Y011705D01*
X025560Y011804D02*
X025436Y011804D01*
X025462Y011903D02*
X025338Y011903D01*
X025116Y011860D02*
X025116Y011460D01*
X027489Y014169D02*
X028466Y014169D01*
X028466Y014268D02*
X027586Y014268D01*
X027586Y014366D02*
X028466Y014366D01*
X015222Y011903D02*
X015036Y011903D01*
D11*
X020716Y006860D03*
X009216Y006860D03*
D12*
X009916Y014760D03*
X010916Y014760D03*
X011916Y014760D03*
X012916Y014760D03*
X012916Y015760D03*
X011916Y015760D03*
X010916Y015760D03*
X009916Y015760D03*
X009916Y021160D03*
X010916Y021160D03*
X011916Y021160D03*
X012916Y021160D03*
X012916Y022160D03*
X011916Y022160D03*
X010916Y022160D03*
X009916Y022160D03*
X024116Y020460D03*
X025116Y020460D03*
X026116Y020460D03*
X027116Y020460D03*
X027116Y019460D03*
X026116Y019460D03*
X025116Y019460D03*
X024116Y019460D03*
X024116Y017460D03*
X025116Y017460D03*
X026116Y017460D03*
X027116Y017460D03*
X027116Y016460D03*
X026116Y016460D03*
X025116Y016460D03*
X024116Y016460D03*
X024116Y014460D03*
X025116Y014460D03*
X026116Y014460D03*
X027116Y014460D03*
X027116Y013460D03*
X026116Y013460D03*
X025116Y013460D03*
X024116Y013460D03*
X024116Y011460D03*
X025116Y011460D03*
X026116Y011460D03*
X027116Y011460D03*
X027116Y010460D03*
X026116Y010460D03*
X025116Y010460D03*
X024116Y010460D03*
D13*
X007916Y012760D03*
X007916Y013760D03*
X007916Y014760D03*
X007916Y015760D03*
D14*
X009316Y011460D03*
X010316Y011460D03*
X011316Y011460D03*
X012316Y011460D03*
X013316Y011460D03*
X014316Y011460D03*
X015316Y011460D03*
X016316Y011460D03*
X017316Y011460D03*
X018316Y011460D03*
X019316Y011460D03*
X020316Y011460D03*
X020316Y002460D03*
X021316Y002460D03*
X019316Y002460D03*
X018316Y002460D03*
X017316Y002460D03*
X016316Y002460D03*
X015316Y002460D03*
X014316Y002460D03*
X013316Y002460D03*
X012316Y002460D03*
X011316Y002460D03*
X010316Y002460D03*
X009316Y002460D03*
X008316Y002460D03*
D15*
X024316Y025860D03*
X025316Y025860D03*
D16*
X027216Y025960D03*
X027216Y024960D03*
X027216Y023960D03*
D17*
X020716Y022560D03*
X019716Y022560D03*
X018716Y022560D03*
D18*
X019116Y025260D03*
X020116Y025260D03*
X021116Y025260D03*
X021116Y026260D03*
X020116Y026260D03*
X019116Y026260D03*
X018116Y026260D03*
X017116Y026260D03*
X016116Y026260D03*
X015116Y026260D03*
X015116Y025260D03*
X016116Y025260D03*
X017116Y025260D03*
X018116Y025260D03*
D19*
X018250Y018260D03*
X017581Y018260D03*
D20*
X003916Y016136D03*
D21*
X003916Y019483D03*
D22*
X003616Y004360D03*
X025816Y004360D03*
D23*
X022716Y006560D03*
X021516Y004760D03*
X022616Y002060D03*
X012916Y007960D03*
X013316Y008360D03*
X012516Y007560D03*
X012116Y007160D03*
X015016Y009260D03*
X014916Y009860D03*
X015216Y010260D03*
X014816Y010760D03*
X013716Y009960D03*
X012816Y010360D03*
X012316Y010360D03*
X011216Y010460D03*
X007816Y008260D03*
X006316Y009960D03*
X003016Y007260D03*
X002016Y009160D03*
X008216Y005060D03*
X007616Y004260D03*
X019516Y009560D03*
X020416Y010460D03*
X021516Y009560D03*
X023016Y008660D03*
X021816Y012160D03*
X020416Y012960D03*
X019916Y013460D03*
X018916Y013460D03*
X020416Y014160D03*
X020416Y014760D03*
X019916Y014960D03*
X019416Y015260D03*
X019516Y015860D03*
X019516Y016660D03*
X018716Y016060D03*
X016816Y015160D03*
X016416Y015560D03*
X015716Y015460D03*
X015716Y016060D03*
X016416Y016360D03*
X015316Y014860D03*
X017016Y018160D03*
X016116Y019160D03*
X014816Y019660D03*
X016616Y021260D03*
X014516Y021460D03*
X016616Y022660D03*
X014316Y024360D03*
X013416Y025460D03*
X014316Y026460D03*
X010216Y023960D03*
X008616Y025260D03*
X006816Y026560D03*
X006316Y025460D03*
X005016Y024460D03*
X003016Y024060D03*
X002316Y023660D03*
X003016Y023260D03*
X005916Y021260D03*
X005416Y020860D03*
X007816Y021260D03*
X008416Y021260D03*
X009016Y021460D03*
X007916Y020460D03*
X008116Y019860D03*
X008816Y019460D03*
X008916Y017560D03*
X006216Y016360D03*
X012316Y022960D03*
X018816Y018260D03*
X020016Y019560D03*
X022516Y021760D03*
X023416Y025460D03*
X027616Y017960D03*
X023416Y017160D03*
X022716Y017560D03*
X002116Y025160D03*
D24*
X001116Y025660D02*
X001116Y010060D01*
X002016Y009160D01*
X007816Y008260D02*
X008416Y007660D01*
X009216Y007660D02*
X009216Y006860D01*
X014816Y019660D02*
X014516Y019960D01*
X014516Y021460D01*
X014616Y021560D01*
X015716Y021560D01*
X015916Y021760D01*
X015916Y023860D01*
X015416Y024360D01*
X014316Y024360D01*
X014516Y024560D01*
X014516Y026260D01*
X014316Y026460D01*
X021116Y025260D02*
X021916Y026060D01*
X021916Y026660D01*
X021516Y027060D01*
X002516Y027060D01*
X001116Y025660D01*
D25*
X003516Y014860D03*
X004316Y014860D03*
D26*
X011716Y011860D02*
X011716Y010960D01*
X011896Y011080D02*
X011916Y011060D01*
X011896Y011080D02*
X011896Y011850D01*
X011916Y011870D01*
X012716Y011860D02*
X012736Y011840D01*
X012736Y010940D01*
X012916Y011160D02*
X013026Y011050D01*
X012916Y011160D02*
X012916Y011860D01*
X013716Y011860D02*
X013716Y010960D01*
X013896Y011080D02*
X013916Y011060D01*
X013896Y011080D02*
X013896Y011820D01*
X013916Y011840D01*
X013916Y011860D01*
X015716Y011860D02*
X015716Y011160D01*
X015616Y011060D01*
X015616Y010660D01*
X016116Y010960D02*
X015916Y011170D01*
X015886Y011220D01*
X015886Y011730D01*
X015916Y011760D01*
X016716Y012160D02*
X016746Y012120D01*
X016746Y011220D01*
X016716Y011180D01*
X016616Y011060D01*
X016916Y011160D02*
X016916Y012060D01*
X017216Y012080D02*
X017716Y011780D01*
X017716Y011160D01*
X018116Y010760D01*
X018216Y010960D02*
X017896Y011270D01*
X017896Y011970D01*
X017416Y012260D01*
M02*
